mtllib door.mtl
o building_door
usemtl door_panel
vn 0.000000 0.000000 1.000000
v -0.620000 0.000000 0.045000
v 0.620000 0.000000 0.045000
v 0.620000 2.250000 0.045000
f 1//1 2//1 3//1
usemtl door_panel
vn 0.000000 0.000000 1.000000
v -0.620000 0.000000 0.045000
v 0.620000 2.250000 0.045000
v -0.620000 2.250000 0.045000
f 4//2 5//2 6//2
usemtl door_panel
vn 1.000000 0.000000 -0.000000
v 0.620000 0.000000 0.045000
v 0.620000 0.000000 0.020000
v 0.620000 2.250000 0.020000
f 7//3 8//3 9//3
usemtl door_panel
vn 1.000000 0.000000 -0.000000
v 0.620000 0.000000 0.045000
v 0.620000 2.250000 0.020000
v 0.620000 2.250000 0.045000
f 10//4 11//4 12//4
usemtl door_panel
vn 0.000000 0.000000 -1.000000
v 0.620000 0.000000 0.020000
v -0.620000 0.000000 0.020000
v -0.620000 2.250000 0.020000
f 13//5 14//5 15//5
usemtl door_panel
vn 0.000000 -0.000000 -1.000000
v 0.620000 0.000000 0.020000
v -0.620000 2.250000 0.020000
v 0.620000 2.250000 0.020000
f 16//6 17//6 18//6
usemtl door_panel
vn -1.000000 0.000000 -0.000000
v -0.620000 0.000000 0.020000
v -0.620000 0.000000 0.045000
v -0.620000 2.250000 0.045000
f 19//7 20//7 21//7
usemtl door_panel
vn -1.000000 0.000000 -0.000000
v -0.620000 0.000000 0.020000
v -0.620000 2.250000 0.045000
v -0.620000 2.250000 0.020000
f 22//8 23//8 24//8
usemtl door_panel
vn 0.000000 -1.000000 -0.000000
v -0.620000 0.000000 0.045000
v -0.620000 0.000000 0.020000
v 0.620000 0.000000 0.020000
f 25//9 26//9 27//9
usemtl door_panel
vn 0.000000 -1.000000 -0.000000
v -0.620000 0.000000 0.045000
v 0.620000 0.000000 0.020000
v 0.620000 0.000000 0.045000
f 28//10 29//10 30//10
usemtl door_panel
vn 0.000000 1.000000 -0.000000
v -0.620000 2.250000 0.045000
v 0.620000 2.250000 0.045000
v 0.620000 2.250000 0.020000
f 31//11 32//11 33//11
usemtl door_panel
vn 0.000000 1.000000 -0.000000
v -0.620000 2.250000 0.045000
v 0.620000 2.250000 0.020000
v -0.620000 2.250000 0.020000
f 34//12 35//12 36//12
usemtl door_frame
vn 0.000000 0.000000 1.000000
v -0.720000 0.000000 0.140000
v -0.620000 0.000000 0.140000
v -0.620000 2.380000 0.140000
f 37//13 38//13 39//13
usemtl door_frame
vn 0.000000 0.000000 1.000000
v -0.720000 0.000000 0.140000
v -0.620000 2.380000 0.140000
v -0.720000 2.380000 0.140000
f 40//14 41//14 42//14
usemtl door_frame
vn 1.000000 0.000000 -0.000000
v -0.620000 0.000000 0.140000
v -0.620000 0.000000 0.045000
v -0.620000 2.380000 0.045000
f 43//15 44//15 45//15
usemtl door_frame
vn 1.000000 0.000000 -0.000000
v -0.620000 0.000000 0.140000
v -0.620000 2.380000 0.045000
v -0.620000 2.380000 0.140000
f 46//16 47//16 48//16
usemtl door_frame
vn 0.000000 0.000000 -1.000000
v -0.620000 0.000000 0.045000
v -0.720000 0.000000 0.045000
v -0.720000 2.380000 0.045000
f 49//17 50//17 51//17
usemtl door_frame
vn 0.000000 -0.000000 -1.000000
v -0.620000 0.000000 0.045000
v -0.720000 2.380000 0.045000
v -0.620000 2.380000 0.045000
f 52//18 53//18 54//18
usemtl door_frame
vn -1.000000 0.000000 -0.000000
v -0.720000 0.000000 0.045000
v -0.720000 0.000000 0.140000
v -0.720000 2.380000 0.140000
f 55//19 56//19 57//19
usemtl door_frame
vn -1.000000 0.000000 -0.000000
v -0.720000 0.000000 0.045000
v -0.720000 2.380000 0.140000
v -0.720000 2.380000 0.045000
f 58//20 59//20 60//20
usemtl door_frame
vn 0.000000 -1.000000 -0.000000
v -0.720000 0.000000 0.140000
v -0.720000 0.000000 0.045000
v -0.620000 0.000000 0.045000
f 61//21 62//21 63//21
usemtl door_frame
vn 0.000000 -1.000000 -0.000000
v -0.720000 0.000000 0.140000
v -0.620000 0.000000 0.045000
v -0.620000 0.000000 0.140000
f 64//22 65//22 66//22
usemtl door_frame
vn 0.000000 1.000000 -0.000000
v -0.720000 2.380000 0.140000
v -0.620000 2.380000 0.140000
v -0.620000 2.380000 0.045000
f 67//23 68//23 69//23
usemtl door_frame
vn 0.000000 1.000000 -0.000000
v -0.720000 2.380000 0.140000
v -0.620000 2.380000 0.045000
v -0.720000 2.380000 0.045000
f 70//24 71//24 72//24
usemtl door_frame
vn 0.000000 0.000000 1.000000
v 0.620000 0.000000 0.140000
v 0.720000 0.000000 0.140000
v 0.720000 2.380000 0.140000
f 73//25 74//25 75//25
usemtl door_frame
vn 0.000000 0.000000 1.000000
v 0.620000 0.000000 0.140000
v 0.720000 2.380000 0.140000
v 0.620000 2.380000 0.140000
f 76//26 77//26 78//26
usemtl door_frame
vn 1.000000 0.000000 -0.000000
v 0.720000 0.000000 0.140000
v 0.720000 0.000000 0.045000
v 0.720000 2.380000 0.045000
f 79//27 80//27 81//27
usemtl door_frame
vn 1.000000 0.000000 -0.000000
v 0.720000 0.000000 0.140000
v 0.720000 2.380000 0.045000
v 0.720000 2.380000 0.140000
f 82//28 83//28 84//28
usemtl door_frame
vn 0.000000 0.000000 -1.000000
v 0.720000 0.000000 0.045000
v 0.620000 0.000000 0.045000
v 0.620000 2.380000 0.045000
f 85//29 86//29 87//29
usemtl door_frame
vn 0.000000 -0.000000 -1.000000
v 0.720000 0.000000 0.045000
v 0.620000 2.380000 0.045000
v 0.720000 2.380000 0.045000
f 88//30 89//30 90//30
usemtl door_frame
vn -1.000000 0.000000 -0.000000
v 0.620000 0.000000 0.045000
v 0.620000 0.000000 0.140000
v 0.620000 2.380000 0.140000
f 91//31 92//31 93//31
usemtl door_frame
vn -1.000000 0.000000 -0.000000
v 0.620000 0.000000 0.045000
v 0.620000 2.380000 0.140000
v 0.620000 2.380000 0.045000
f 94//32 95//32 96//32
usemtl door_frame
vn 0.000000 -1.000000 -0.000000
v 0.620000 0.000000 0.140000
v 0.620000 0.000000 0.045000
v 0.720000 0.000000 0.045000
f 97//33 98//33 99//33
usemtl door_frame
vn 0.000000 -1.000000 -0.000000
v 0.620000 0.000000 0.140000
v 0.720000 0.000000 0.045000
v 0.720000 0.000000 0.140000
f 100//34 101//34 102//34
usemtl door_frame
vn 0.000000 1.000000 -0.000000
v 0.620000 2.380000 0.140000
v 0.720000 2.380000 0.140000
v 0.720000 2.380000 0.045000
f 103//35 104//35 105//35
usemtl door_frame
vn 0.000000 1.000000 -0.000000
v 0.620000 2.380000 0.140000
v 0.720000 2.380000 0.045000
v 0.620000 2.380000 0.045000
f 106//36 107//36 108//36
usemtl door_frame
vn 0.000000 0.000000 1.000000
v -0.620000 2.250000 0.140000
v 0.620000 2.250000 0.140000
v 0.620000 2.380000 0.140000
f 109//37 110//37 111//37
usemtl door_frame
vn 0.000000 0.000000 1.000000
v -0.620000 2.250000 0.140000
v 0.620000 2.380000 0.140000
v -0.620000 2.380000 0.140000
f 112//38 113//38 114//38
usemtl door_frame
vn 1.000000 0.000000 -0.000000
v 0.620000 2.250000 0.140000
v 0.620000 2.250000 0.045000
v 0.620000 2.380000 0.045000
f 115//39 116//39 117//39
usemtl door_frame
vn 1.000000 0.000000 -0.000000
v 0.620000 2.250000 0.140000
v 0.620000 2.380000 0.045000
v 0.620000 2.380000 0.140000
f 118//40 119//40 120//40
usemtl door_frame
vn 0.000000 0.000000 -1.000000
v 0.620000 2.250000 0.045000
v -0.620000 2.250000 0.045000
v -0.620000 2.380000 0.045000
f 121//41 122//41 123//41
usemtl door_frame
vn 0.000000 -0.000000 -1.000000
v 0.620000 2.250000 0.045000
v -0.620000 2.380000 0.045000
v 0.620000 2.380000 0.045000
f 124//42 125//42 126//42
usemtl door_frame
vn -1.000000 0.000000 -0.000000
v -0.620000 2.250000 0.045000
v -0.620000 2.250000 0.140000
v -0.620000 2.380000 0.140000
f 127//43 128//43 129//43
usemtl door_frame
vn -1.000000 0.000000 -0.000000
v -0.620000 2.250000 0.045000
v -0.620000 2.380000 0.140000
v -0.620000 2.380000 0.045000
f 130//44 131//44 132//44
usemtl door_frame
vn 0.000000 -1.000000 -0.000000
v -0.620000 2.250000 0.140000
v -0.620000 2.250000 0.045000
v 0.620000 2.250000 0.045000
f 133//45 134//45 135//45
usemtl door_frame
vn 0.000000 -1.000000 -0.000000
v -0.620000 2.250000 0.140000
v 0.620000 2.250000 0.045000
v 0.620000 2.250000 0.140000
f 136//46 137//46 138//46
usemtl door_frame
vn 0.000000 1.000000 -0.000000
v -0.620000 2.380000 0.140000
v 0.620000 2.380000 0.140000
v 0.620000 2.380000 0.045000
f 139//47 140//47 141//47
usemtl door_frame
vn 0.000000 1.000000 -0.000000
v -0.620000 2.380000 0.140000
v 0.620000 2.380000 0.045000
v -0.620000 2.380000 0.045000
f 142//48 143//48 144//48
usemtl door_handle
vn 0.000000 0.000000 1.000000
v 0.390000 1.000000 0.190000
v 0.480000 1.000000 0.190000
v 0.480000 1.110000 0.190000
f 145//49 146//49 147//49
usemtl door_handle
vn 0.000000 0.000000 1.000000
v 0.390000 1.000000 0.190000
v 0.480000 1.110000 0.190000
v 0.390000 1.110000 0.190000
f 148//50 149//50 150//50
usemtl door_handle
vn 1.000000 0.000000 -0.000000
v 0.480000 1.000000 0.190000
v 0.480000 1.000000 0.100000
v 0.480000 1.110000 0.100000
f 151//51 152//51 153//51
usemtl door_handle
vn 1.000000 0.000000 -0.000000
v 0.480000 1.000000 0.190000
v 0.480000 1.110000 0.100000
v 0.480000 1.110000 0.190000
f 154//52 155//52 156//52
usemtl door_handle
vn 0.000000 0.000000 -1.000000
v 0.480000 1.000000 0.100000
v 0.390000 1.000000 0.100000
v 0.390000 1.110000 0.100000
f 157//53 158//53 159//53
usemtl door_handle
vn 0.000000 -0.000000 -1.000000
v 0.480000 1.000000 0.100000
v 0.390000 1.110000 0.100000
v 0.480000 1.110000 0.100000
f 160//54 161//54 162//54
usemtl door_handle
vn -1.000000 0.000000 -0.000000
v 0.390000 1.000000 0.100000
v 0.390000 1.000000 0.190000
v 0.390000 1.110000 0.190000
f 163//55 164//55 165//55
usemtl door_handle
vn -1.000000 0.000000 -0.000000
v 0.390000 1.000000 0.100000
v 0.390000 1.110000 0.190000
v 0.390000 1.110000 0.100000
f 166//56 167//56 168//56
usemtl door_handle
vn 0.000000 -1.000000 -0.000000
v 0.390000 1.000000 0.190000
v 0.390000 1.000000 0.100000
v 0.480000 1.000000 0.100000
f 169//57 170//57 171//57
usemtl door_handle
vn 0.000000 -1.000000 -0.000000
v 0.390000 1.000000 0.190000
v 0.480000 1.000000 0.100000
v 0.480000 1.000000 0.190000
f 172//58 173//58 174//58
usemtl door_handle
vn 0.000000 1.000000 -0.000000
v 0.390000 1.110000 0.190000
v 0.480000 1.110000 0.190000
v 0.480000 1.110000 0.100000
f 175//59 176//59 177//59
usemtl door_handle
vn 0.000000 1.000000 -0.000000
v 0.390000 1.110000 0.190000
v 0.480000 1.110000 0.100000
v 0.390000 1.110000 0.100000
f 178//60 179//60 180//60
