mtllib fire_escape.mtl
o fire_escape_module
usemtl fire_escape_metal
vn 0.000000 0.000000 1.000000
v -1.400000 -0.080000 0.920000
v 1.400000 -0.080000 0.920000
v 1.400000 0.080000 0.920000
f 1//1 2//1 3//1
usemtl fire_escape_metal
vn 0.000000 0.000000 1.000000
v -1.400000 -0.080000 0.920000
v 1.400000 0.080000 0.920000
v -1.400000 0.080000 0.920000
f 4//2 5//2 6//2
usemtl fire_escape_metal
vn 1.000000 0.000000 -0.000000
v 1.400000 -0.080000 0.920000
v 1.400000 -0.080000 0.050000
v 1.400000 0.080000 0.050000
f 7//3 8//3 9//3
usemtl fire_escape_metal
vn 1.000000 0.000000 -0.000000
v 1.400000 -0.080000 0.920000
v 1.400000 0.080000 0.050000
v 1.400000 0.080000 0.920000
f 10//4 11//4 12//4
usemtl fire_escape_metal
vn 0.000000 0.000000 -1.000000
v 1.400000 -0.080000 0.050000
v -1.400000 -0.080000 0.050000
v -1.400000 0.080000 0.050000
f 13//5 14//5 15//5
usemtl fire_escape_metal
vn 0.000000 -0.000000 -1.000000
v 1.400000 -0.080000 0.050000
v -1.400000 0.080000 0.050000
v 1.400000 0.080000 0.050000
f 16//6 17//6 18//6
usemtl fire_escape_metal
vn -1.000000 0.000000 -0.000000
v -1.400000 -0.080000 0.050000
v -1.400000 -0.080000 0.920000
v -1.400000 0.080000 0.920000
f 19//7 20//7 21//7
usemtl fire_escape_metal
vn -1.000000 0.000000 -0.000000
v -1.400000 -0.080000 0.050000
v -1.400000 0.080000 0.920000
v -1.400000 0.080000 0.050000
f 22//8 23//8 24//8
usemtl fire_escape_metal
vn 0.000000 -1.000000 -0.000000
v -1.400000 -0.080000 0.920000
v -1.400000 -0.080000 0.050000
v 1.400000 -0.080000 0.050000
f 25//9 26//9 27//9
usemtl fire_escape_metal
vn 0.000000 -1.000000 -0.000000
v -1.400000 -0.080000 0.920000
v 1.400000 -0.080000 0.050000
v 1.400000 -0.080000 0.920000
f 28//10 29//10 30//10
usemtl fire_escape_metal
vn 0.000000 1.000000 -0.000000
v -1.400000 0.080000 0.920000
v 1.400000 0.080000 0.920000
v 1.400000 0.080000 0.050000
f 31//11 32//11 33//11
usemtl fire_escape_metal
vn 0.000000 1.000000 -0.000000
v -1.400000 0.080000 0.920000
v 1.400000 0.080000 0.050000
v -1.400000 0.080000 0.050000
f 34//12 35//12 36//12
usemtl fire_escape_metal
vn 0.000000 0.000000 1.000000
v -1.355000 0.020000 0.920000
v -1.285000 0.020000 0.920000
v -1.285000 1.050000 0.920000
f 37//13 38//13 39//13
usemtl fire_escape_metal
vn 0.000000 0.000000 1.000000
v -1.355000 0.020000 0.920000
v -1.285000 1.050000 0.920000
v -1.355000 1.050000 0.920000
f 40//14 41//14 42//14
usemtl fire_escape_metal
vn 1.000000 0.000000 -0.000000
v -1.285000 0.020000 0.920000
v -1.285000 0.020000 0.840000
v -1.285000 1.050000 0.840000
f 43//15 44//15 45//15
usemtl fire_escape_metal
vn 1.000000 0.000000 -0.000000
v -1.285000 0.020000 0.920000
v -1.285000 1.050000 0.840000
v -1.285000 1.050000 0.920000
f 46//16 47//16 48//16
usemtl fire_escape_metal
vn 0.000000 0.000000 -1.000000
v -1.285000 0.020000 0.840000
v -1.355000 0.020000 0.840000
v -1.355000 1.050000 0.840000
f 49//17 50//17 51//17
usemtl fire_escape_metal
vn 0.000000 -0.000000 -1.000000
v -1.285000 0.020000 0.840000
v -1.355000 1.050000 0.840000
v -1.285000 1.050000 0.840000
f 52//18 53//18 54//18
usemtl fire_escape_metal
vn -1.000000 0.000000 -0.000000
v -1.355000 0.020000 0.840000
v -1.355000 0.020000 0.920000
v -1.355000 1.050000 0.920000
f 55//19 56//19 57//19
usemtl fire_escape_metal
vn -1.000000 0.000000 -0.000000
v -1.355000 0.020000 0.840000
v -1.355000 1.050000 0.920000
v -1.355000 1.050000 0.840000
f 58//20 59//20 60//20
usemtl fire_escape_metal
vn 0.000000 -1.000000 -0.000000
v -1.355000 0.020000 0.920000
v -1.355000 0.020000 0.840000
v -1.285000 0.020000 0.840000
f 61//21 62//21 63//21
usemtl fire_escape_metal
vn 0.000000 -1.000000 -0.000000
v -1.355000 0.020000 0.920000
v -1.285000 0.020000 0.840000
v -1.285000 0.020000 0.920000
f 64//22 65//22 66//22
usemtl fire_escape_metal
vn 0.000000 1.000000 -0.000000
v -1.355000 1.050000 0.920000
v -1.285000 1.050000 0.920000
v -1.285000 1.050000 0.840000
f 67//23 68//23 69//23
usemtl fire_escape_metal
vn 0.000000 1.000000 -0.000000
v -1.355000 1.050000 0.920000
v -1.285000 1.050000 0.840000
v -1.355000 1.050000 0.840000
f 70//24 71//24 72//24
usemtl fire_escape_metal
vn 0.000000 0.000000 1.000000
v -0.035000 0.020000 0.920000
v 0.035000 0.020000 0.920000
v 0.035000 1.050000 0.920000
f 73//25 74//25 75//25
usemtl fire_escape_metal
vn 0.000000 0.000000 1.000000
v -0.035000 0.020000 0.920000
v 0.035000 1.050000 0.920000
v -0.035000 1.050000 0.920000
f 76//26 77//26 78//26
usemtl fire_escape_metal
vn 1.000000 0.000000 -0.000000
v 0.035000 0.020000 0.920000
v 0.035000 0.020000 0.840000
v 0.035000 1.050000 0.840000
f 79//27 80//27 81//27
usemtl fire_escape_metal
vn 1.000000 0.000000 -0.000000
v 0.035000 0.020000 0.920000
v 0.035000 1.050000 0.840000
v 0.035000 1.050000 0.920000
f 82//28 83//28 84//28
usemtl fire_escape_metal
vn 0.000000 0.000000 -1.000000
v 0.035000 0.020000 0.840000
v -0.035000 0.020000 0.840000
v -0.035000 1.050000 0.840000
f 85//29 86//29 87//29
usemtl fire_escape_metal
vn 0.000000 -0.000000 -1.000000
v 0.035000 0.020000 0.840000
v -0.035000 1.050000 0.840000
v 0.035000 1.050000 0.840000
f 88//30 89//30 90//30
usemtl fire_escape_metal
vn -1.000000 0.000000 -0.000000
v -0.035000 0.020000 0.840000
v -0.035000 0.020000 0.920000
v -0.035000 1.050000 0.920000
f 91//31 92//31 93//31
usemtl fire_escape_metal
vn -1.000000 0.000000 -0.000000
v -0.035000 0.020000 0.840000
v -0.035000 1.050000 0.920000
v -0.035000 1.050000 0.840000
f 94//32 95//32 96//32
usemtl fire_escape_metal
vn 0.000000 -1.000000 -0.000000
v -0.035000 0.020000 0.920000
v -0.035000 0.020000 0.840000
v 0.035000 0.020000 0.840000
f 97//33 98//33 99//33
usemtl fire_escape_metal
vn 0.000000 -1.000000 -0.000000
v -0.035000 0.020000 0.920000
v 0.035000 0.020000 0.840000
v 0.035000 0.020000 0.920000
f 100//34 101//34 102//34
usemtl fire_escape_metal
vn 0.000000 1.000000 -0.000000
v -0.035000 1.050000 0.920000
v 0.035000 1.050000 0.920000
v 0.035000 1.050000 0.840000
f 103//35 104//35 105//35
usemtl fire_escape_metal
vn 0.000000 1.000000 -0.000000
v -0.035000 1.050000 0.920000
v 0.035000 1.050000 0.840000
v -0.035000 1.050000 0.840000
f 106//36 107//36 108//36
usemtl fire_escape_metal
vn 0.000000 0.000000 1.000000
v 1.285000 0.020000 0.920000
v 1.355000 0.020000 0.920000
v 1.355000 1.050000 0.920000
f 109//37 110//37 111//37
usemtl fire_escape_metal
vn 0.000000 0.000000 1.000000
v 1.285000 0.020000 0.920000
v 1.355000 1.050000 0.920000
v 1.285000 1.050000 0.920000
f 112//38 113//38 114//38
usemtl fire_escape_metal
vn 1.000000 0.000000 -0.000000
v 1.355000 0.020000 0.920000
v 1.355000 0.020000 0.840000
v 1.355000 1.050000 0.840000
f 115//39 116//39 117//39
usemtl fire_escape_metal
vn 1.000000 0.000000 -0.000000
v 1.355000 0.020000 0.920000
v 1.355000 1.050000 0.840000
v 1.355000 1.050000 0.920000
f 118//40 119//40 120//40
usemtl fire_escape_metal
vn 0.000000 0.000000 -1.000000
v 1.355000 0.020000 0.840000
v 1.285000 0.020000 0.840000
v 1.285000 1.050000 0.840000
f 121//41 122//41 123//41
usemtl fire_escape_metal
vn 0.000000 -0.000000 -1.000000
v 1.355000 0.020000 0.840000
v 1.285000 1.050000 0.840000
v 1.355000 1.050000 0.840000
f 124//42 125//42 126//42
usemtl fire_escape_metal
vn -1.000000 0.000000 -0.000000
v 1.285000 0.020000 0.840000
v 1.285000 0.020000 0.920000
v 1.285000 1.050000 0.920000
f 127//43 128//43 129//43
usemtl fire_escape_metal
vn -1.000000 0.000000 -0.000000
v 1.285000 0.020000 0.840000
v 1.285000 1.050000 0.920000
v 1.285000 1.050000 0.840000
f 130//44 131//44 132//44
usemtl fire_escape_metal
vn 0.000000 -1.000000 -0.000000
v 1.285000 0.020000 0.920000
v 1.285000 0.020000 0.840000
v 1.355000 0.020000 0.840000
f 133//45 134//45 135//45
usemtl fire_escape_metal
vn 0.000000 -1.000000 -0.000000
v 1.285000 0.020000 0.920000
v 1.355000 0.020000 0.840000
v 1.355000 0.020000 0.920000
f 136//46 137//46 138//46
usemtl fire_escape_metal
vn 0.000000 1.000000 -0.000000
v 1.285000 1.050000 0.920000
v 1.355000 1.050000 0.920000
v 1.355000 1.050000 0.840000
f 139//47 140//47 141//47
usemtl fire_escape_metal
vn 0.000000 1.000000 -0.000000
v 1.285000 1.050000 0.920000
v 1.355000 1.050000 0.840000
v 1.285000 1.050000 0.840000
f 142//48 143//48 144//48
usemtl fire_escape_metal
vn 0.000000 0.000000 1.000000
v -1.350000 0.940000 0.930000
v 1.350000 0.940000 0.930000
v 1.350000 1.040000 0.930000
f 145//49 146//49 147//49
usemtl fire_escape_metal
vn 0.000000 0.000000 1.000000
v -1.350000 0.940000 0.930000
v 1.350000 1.040000 0.930000
v -1.350000 1.040000 0.930000
f 148//50 149//50 150//50
usemtl fire_escape_metal
vn 1.000000 0.000000 -0.000000
v 1.350000 0.940000 0.930000
v 1.350000 0.940000 0.830000
v 1.350000 1.040000 0.830000
f 151//51 152//51 153//51
usemtl fire_escape_metal
vn 1.000000 0.000000 -0.000000
v 1.350000 0.940000 0.930000
v 1.350000 1.040000 0.830000
v 1.350000 1.040000 0.930000
f 154//52 155//52 156//52
usemtl fire_escape_metal
vn 0.000000 0.000000 -1.000000
v 1.350000 0.940000 0.830000
v -1.350000 0.940000 0.830000
v -1.350000 1.040000 0.830000
f 157//53 158//53 159//53
usemtl fire_escape_metal
vn 0.000000 -0.000000 -1.000000
v 1.350000 0.940000 0.830000
v -1.350000 1.040000 0.830000
v 1.350000 1.040000 0.830000
f 160//54 161//54 162//54
usemtl fire_escape_metal
vn -1.000000 0.000000 -0.000000
v -1.350000 0.940000 0.830000
v -1.350000 0.940000 0.930000
v -1.350000 1.040000 0.930000
f 163//55 164//55 165//55
usemtl fire_escape_metal
vn -1.000000 0.000000 -0.000000
v -1.350000 0.940000 0.830000
v -1.350000 1.040000 0.930000
v -1.350000 1.040000 0.830000
f 166//56 167//56 168//56
usemtl fire_escape_metal
vn 0.000000 -1.000000 -0.000000
v -1.350000 0.940000 0.930000
v -1.350000 0.940000 0.830000
v 1.350000 0.940000 0.830000
f 169//57 170//57 171//57
usemtl fire_escape_metal
vn 0.000000 -1.000000 -0.000000
v -1.350000 0.940000 0.930000
v 1.350000 0.940000 0.830000
v 1.350000 0.940000 0.930000
f 172//58 173//58 174//58
usemtl fire_escape_metal
vn 0.000000 1.000000 -0.000000
v -1.350000 1.040000 0.930000
v 1.350000 1.040000 0.930000
v 1.350000 1.040000 0.830000
f 175//59 176//59 177//59
usemtl fire_escape_metal
vn 0.000000 1.000000 -0.000000
v -1.350000 1.040000 0.930000
v 1.350000 1.040000 0.830000
v -1.350000 1.040000 0.830000
f 178//60 179//60 180//60
usemtl fire_escape_metal
vn 0.000000 0.000000 1.000000
v -1.350000 0.480000 0.930000
v 1.350000 0.480000 0.930000
v 1.350000 0.560000 0.930000
f 181//61 182//61 183//61
usemtl fire_escape_metal
vn 0.000000 0.000000 1.000000
v -1.350000 0.480000 0.930000
v 1.350000 0.560000 0.930000
v -1.350000 0.560000 0.930000
f 184//62 185//62 186//62
usemtl fire_escape_metal
vn 1.000000 0.000000 -0.000000
v 1.350000 0.480000 0.930000
v 1.350000 0.480000 0.860000
v 1.350000 0.560000 0.860000
f 187//63 188//63 189//63
usemtl fire_escape_metal
vn 1.000000 0.000000 -0.000000
v 1.350000 0.480000 0.930000
v 1.350000 0.560000 0.860000
v 1.350000 0.560000 0.930000
f 190//64 191//64 192//64
usemtl fire_escape_metal
vn 0.000000 0.000000 -1.000000
v 1.350000 0.480000 0.860000
v -1.350000 0.480000 0.860000
v -1.350000 0.560000 0.860000
f 193//65 194//65 195//65
usemtl fire_escape_metal
vn 0.000000 -0.000000 -1.000000
v 1.350000 0.480000 0.860000
v -1.350000 0.560000 0.860000
v 1.350000 0.560000 0.860000
f 196//66 197//66 198//66
usemtl fire_escape_metal
vn -1.000000 0.000000 -0.000000
v -1.350000 0.480000 0.860000
v -1.350000 0.480000 0.930000
v -1.350000 0.560000 0.930000
f 199//67 200//67 201//67
usemtl fire_escape_metal
vn -1.000000 0.000000 -0.000000
v -1.350000 0.480000 0.860000
v -1.350000 0.560000 0.930000
v -1.350000 0.560000 0.860000
f 202//68 203//68 204//68
usemtl fire_escape_metal
vn 0.000000 -1.000000 -0.000000
v -1.350000 0.480000 0.930000
v -1.350000 0.480000 0.860000
v 1.350000 0.480000 0.860000
f 205//69 206//69 207//69
usemtl fire_escape_metal
vn 0.000000 -1.000000 -0.000000
v -1.350000 0.480000 0.930000
v 1.350000 0.480000 0.860000
v 1.350000 0.480000 0.930000
f 208//70 209//70 210//70
usemtl fire_escape_metal
vn 0.000000 1.000000 -0.000000
v -1.350000 0.560000 0.930000
v 1.350000 0.560000 0.930000
v 1.350000 0.560000 0.860000
f 211//71 212//71 213//71
usemtl fire_escape_metal
vn 0.000000 1.000000 -0.000000
v -1.350000 0.560000 0.930000
v 1.350000 0.560000 0.860000
v -1.350000 0.560000 0.860000
f 214//72 215//72 216//72
usemtl fire_escape_metal
vn 0.000000 0.000000 1.000000
v 0.825000 -2.850000 1.000000
v 0.895000 -2.850000 1.000000
v 0.895000 0.020000 1.000000
f 217//73 218//73 219//73
usemtl fire_escape_metal
vn 0.000000 0.000000 1.000000
v 0.825000 -2.850000 1.000000
v 0.895000 0.020000 1.000000
v 0.825000 0.020000 1.000000
f 220//74 221//74 222//74
usemtl fire_escape_metal
vn 1.000000 0.000000 -0.000000
v 0.895000 -2.850000 1.000000
v 0.895000 -2.850000 0.910000
v 0.895000 0.020000 0.910000
f 223//75 224//75 225//75
usemtl fire_escape_metal
vn 1.000000 0.000000 -0.000000
v 0.895000 -2.850000 1.000000
v 0.895000 0.020000 0.910000
v 0.895000 0.020000 1.000000
f 226//76 227//76 228//76
usemtl fire_escape_metal
vn 0.000000 0.000000 -1.000000
v 0.895000 -2.850000 0.910000
v 0.825000 -2.850000 0.910000
v 0.825000 0.020000 0.910000
f 229//77 230//77 231//77
usemtl fire_escape_metal
vn 0.000000 -0.000000 -1.000000
v 0.895000 -2.850000 0.910000
v 0.825000 0.020000 0.910000
v 0.895000 0.020000 0.910000
f 232//78 233//78 234//78
usemtl fire_escape_metal
vn -1.000000 0.000000 -0.000000
v 0.825000 -2.850000 0.910000
v 0.825000 -2.850000 1.000000
v 0.825000 0.020000 1.000000
f 235//79 236//79 237//79
usemtl fire_escape_metal
vn -1.000000 0.000000 -0.000000
v 0.825000 -2.850000 0.910000
v 0.825000 0.020000 1.000000
v 0.825000 0.020000 0.910000
f 238//80 239//80 240//80
usemtl fire_escape_metal
vn 0.000000 -1.000000 -0.000000
v 0.825000 -2.850000 1.000000
v 0.825000 -2.850000 0.910000
v 0.895000 -2.850000 0.910000
f 241//81 242//81 243//81
usemtl fire_escape_metal
vn 0.000000 -1.000000 -0.000000
v 0.825000 -2.850000 1.000000
v 0.895000 -2.850000 0.910000
v 0.895000 -2.850000 1.000000
f 244//82 245//82 246//82
usemtl fire_escape_metal
vn 0.000000 1.000000 -0.000000
v 0.825000 0.020000 1.000000
v 0.895000 0.020000 1.000000
v 0.895000 0.020000 0.910000
f 247//83 248//83 249//83
usemtl fire_escape_metal
vn 0.000000 1.000000 -0.000000
v 0.825000 0.020000 1.000000
v 0.895000 0.020000 0.910000
v 0.825000 0.020000 0.910000
f 250//84 251//84 252//84
usemtl fire_escape_metal
vn 0.000000 0.000000 1.000000
v 1.125000 -2.850000 1.000000
v 1.195000 -2.850000 1.000000
v 1.195000 0.020000 1.000000
f 253//85 254//85 255//85
usemtl fire_escape_metal
vn 0.000000 0.000000 1.000000
v 1.125000 -2.850000 1.000000
v 1.195000 0.020000 1.000000
v 1.125000 0.020000 1.000000
f 256//86 257//86 258//86
usemtl fire_escape_metal
vn 1.000000 0.000000 -0.000000
v 1.195000 -2.850000 1.000000
v 1.195000 -2.850000 0.910000
v 1.195000 0.020000 0.910000
f 259//87 260//87 261//87
usemtl fire_escape_metal
vn 1.000000 0.000000 -0.000000
v 1.195000 -2.850000 1.000000
v 1.195000 0.020000 0.910000
v 1.195000 0.020000 1.000000
f 262//88 263//88 264//88
usemtl fire_escape_metal
vn 0.000000 0.000000 -1.000000
v 1.195000 -2.850000 0.910000
v 1.125000 -2.850000 0.910000
v 1.125000 0.020000 0.910000
f 265//89 266//89 267//89
usemtl fire_escape_metal
vn 0.000000 -0.000000 -1.000000
v 1.195000 -2.850000 0.910000
v 1.125000 0.020000 0.910000
v 1.195000 0.020000 0.910000
f 268//90 269//90 270//90
usemtl fire_escape_metal
vn -1.000000 0.000000 -0.000000
v 1.125000 -2.850000 0.910000
v 1.125000 -2.850000 1.000000
v 1.125000 0.020000 1.000000
f 271//91 272//91 273//91
usemtl fire_escape_metal
vn -1.000000 0.000000 -0.000000
v 1.125000 -2.850000 0.910000
v 1.125000 0.020000 1.000000
v 1.125000 0.020000 0.910000
f 274//92 275//92 276//92
usemtl fire_escape_metal
vn 0.000000 -1.000000 -0.000000
v 1.125000 -2.850000 1.000000
v 1.125000 -2.850000 0.910000
v 1.195000 -2.850000 0.910000
f 277//93 278//93 279//93
usemtl fire_escape_metal
vn 0.000000 -1.000000 -0.000000
v 1.125000 -2.850000 1.000000
v 1.195000 -2.850000 0.910000
v 1.195000 -2.850000 1.000000
f 280//94 281//94 282//94
usemtl fire_escape_metal
vn 0.000000 1.000000 -0.000000
v 1.125000 0.020000 1.000000
v 1.195000 0.020000 1.000000
v 1.195000 0.020000 0.910000
f 283//95 284//95 285//95
usemtl fire_escape_metal
vn 0.000000 1.000000 -0.000000
v 1.125000 0.020000 1.000000
v 1.195000 0.020000 0.910000
v 1.125000 0.020000 0.910000
f 286//96 287//96 288//96
usemtl fire_escape_metal
vn 0.000000 0.000000 1.000000
v 0.830000 -2.650000 1.010000
v 1.190000 -2.650000 1.010000
v 1.190000 -2.595000 1.010000
f 289//97 290//97 291//97
usemtl fire_escape_metal
vn 0.000000 0.000000 1.000000
v 0.830000 -2.650000 1.010000
v 1.190000 -2.595000 1.010000
v 0.830000 -2.595000 1.010000
f 292//98 293//98 294//98
usemtl fire_escape_metal
vn 1.000000 0.000000 -0.000000
v 1.190000 -2.650000 1.010000
v 1.190000 -2.650000 0.900000
v 1.190000 -2.595000 0.900000
f 295//99 296//99 297//99
usemtl fire_escape_metal
vn 1.000000 0.000000 -0.000000
v 1.190000 -2.650000 1.010000
v 1.190000 -2.595000 0.900000
v 1.190000 -2.595000 1.010000
f 298//100 299//100 300//100
usemtl fire_escape_metal
vn 0.000000 0.000000 -1.000000
v 1.190000 -2.650000 0.900000
v 0.830000 -2.650000 0.900000
v 0.830000 -2.595000 0.900000
f 301//101 302//101 303//101
usemtl fire_escape_metal
vn 0.000000 -0.000000 -1.000000
v 1.190000 -2.650000 0.900000
v 0.830000 -2.595000 0.900000
v 1.190000 -2.595000 0.900000
f 304//102 305//102 306//102
usemtl fire_escape_metal
vn -1.000000 0.000000 -0.000000
v 0.830000 -2.650000 0.900000
v 0.830000 -2.650000 1.010000
v 0.830000 -2.595000 1.010000
f 307//103 308//103 309//103
usemtl fire_escape_metal
vn -1.000000 0.000000 -0.000000
v 0.830000 -2.650000 0.900000
v 0.830000 -2.595000 1.010000
v 0.830000 -2.595000 0.900000
f 310//104 311//104 312//104
usemtl fire_escape_metal
vn 0.000000 -1.000000 -0.000000
v 0.830000 -2.650000 1.010000
v 0.830000 -2.650000 0.900000
v 1.190000 -2.650000 0.900000
f 313//105 314//105 315//105
usemtl fire_escape_metal
vn 0.000000 -1.000000 -0.000000
v 0.830000 -2.650000 1.010000
v 1.190000 -2.650000 0.900000
v 1.190000 -2.650000 1.010000
f 316//106 317//106 318//106
usemtl fire_escape_metal
vn 0.000000 1.000000 -0.000000
v 0.830000 -2.595000 1.010000
v 1.190000 -2.595000 1.010000
v 1.190000 -2.595000 0.900000
f 319//107 320//107 321//107
usemtl fire_escape_metal
vn 0.000000 1.000000 -0.000000
v 0.830000 -2.595000 1.010000
v 1.190000 -2.595000 0.900000
v 0.830000 -2.595000 0.900000
f 322//108 323//108 324//108
usemtl fire_escape_metal
vn 0.000000 0.000000 1.000000
v 0.830000 -2.290000 1.010000
v 1.190000 -2.290000 1.010000
v 1.190000 -2.235000 1.010000
f 325//109 326//109 327//109
usemtl fire_escape_metal
vn 0.000000 0.000000 1.000000
v 0.830000 -2.290000 1.010000
v 1.190000 -2.235000 1.010000
v 0.830000 -2.235000 1.010000
f 328//110 329//110 330//110
usemtl fire_escape_metal
vn 1.000000 0.000000 -0.000000
v 1.190000 -2.290000 1.010000
v 1.190000 -2.290000 0.900000
v 1.190000 -2.235000 0.900000
f 331//111 332//111 333//111
usemtl fire_escape_metal
vn 1.000000 0.000000 -0.000000
v 1.190000 -2.290000 1.010000
v 1.190000 -2.235000 0.900000
v 1.190000 -2.235000 1.010000
f 334//112 335//112 336//112
usemtl fire_escape_metal
vn 0.000000 0.000000 -1.000000
v 1.190000 -2.290000 0.900000
v 0.830000 -2.290000 0.900000
v 0.830000 -2.235000 0.900000
f 337//113 338//113 339//113
usemtl fire_escape_metal
vn 0.000000 -0.000000 -1.000000
v 1.190000 -2.290000 0.900000
v 0.830000 -2.235000 0.900000
v 1.190000 -2.235000 0.900000
f 340//114 341//114 342//114
usemtl fire_escape_metal
vn -1.000000 0.000000 -0.000000
v 0.830000 -2.290000 0.900000
v 0.830000 -2.290000 1.010000
v 0.830000 -2.235000 1.010000
f 343//115 344//115 345//115
usemtl fire_escape_metal
vn -1.000000 0.000000 -0.000000
v 0.830000 -2.290000 0.900000
v 0.830000 -2.235000 1.010000
v 0.830000 -2.235000 0.900000
f 346//116 347//116 348//116
usemtl fire_escape_metal
vn 0.000000 -1.000000 -0.000000
v 0.830000 -2.290000 1.010000
v 0.830000 -2.290000 0.900000
v 1.190000 -2.290000 0.900000
f 349//117 350//117 351//117
usemtl fire_escape_metal
vn 0.000000 -1.000000 -0.000000
v 0.830000 -2.290000 1.010000
v 1.190000 -2.290000 0.900000
v 1.190000 -2.290000 1.010000
f 352//118 353//118 354//118
usemtl fire_escape_metal
vn 0.000000 1.000000 -0.000000
v 0.830000 -2.235000 1.010000
v 1.190000 -2.235000 1.010000
v 1.190000 -2.235000 0.900000
f 355//119 356//119 357//119
usemtl fire_escape_metal
vn 0.000000 1.000000 -0.000000
v 0.830000 -2.235000 1.010000
v 1.190000 -2.235000 0.900000
v 0.830000 -2.235000 0.900000
f 358//120 359//120 360//120
usemtl fire_escape_metal
vn 0.000000 0.000000 1.000000
v 0.830000 -1.930000 1.010000
v 1.190000 -1.930000 1.010000
v 1.190000 -1.875000 1.010000
f 361//121 362//121 363//121
usemtl fire_escape_metal
vn 0.000000 0.000000 1.000000
v 0.830000 -1.930000 1.010000
v 1.190000 -1.875000 1.010000
v 0.830000 -1.875000 1.010000
f 364//122 365//122 366//122
usemtl fire_escape_metal
vn 1.000000 0.000000 -0.000000
v 1.190000 -1.930000 1.010000
v 1.190000 -1.930000 0.900000
v 1.190000 -1.875000 0.900000
f 367//123 368//123 369//123
usemtl fire_escape_metal
vn 1.000000 0.000000 -0.000000
v 1.190000 -1.930000 1.010000
v 1.190000 -1.875000 0.900000
v 1.190000 -1.875000 1.010000
f 370//124 371//124 372//124
usemtl fire_escape_metal
vn 0.000000 0.000000 -1.000000
v 1.190000 -1.930000 0.900000
v 0.830000 -1.930000 0.900000
v 0.830000 -1.875000 0.900000
f 373//125 374//125 375//125
usemtl fire_escape_metal
vn 0.000000 -0.000000 -1.000000
v 1.190000 -1.930000 0.900000
v 0.830000 -1.875000 0.900000
v 1.190000 -1.875000 0.900000
f 376//126 377//126 378//126
usemtl fire_escape_metal
vn -1.000000 0.000000 -0.000000
v 0.830000 -1.930000 0.900000
v 0.830000 -1.930000 1.010000
v 0.830000 -1.875000 1.010000
f 379//127 380//127 381//127
usemtl fire_escape_metal
vn -1.000000 0.000000 -0.000000
v 0.830000 -1.930000 0.900000
v 0.830000 -1.875000 1.010000
v 0.830000 -1.875000 0.900000
f 382//128 383//128 384//128
usemtl fire_escape_metal
vn 0.000000 -1.000000 -0.000000
v 0.830000 -1.930000 1.010000
v 0.830000 -1.930000 0.900000
v 1.190000 -1.930000 0.900000
f 385//129 386//129 387//129
usemtl fire_escape_metal
vn 0.000000 -1.000000 -0.000000
v 0.830000 -1.930000 1.010000
v 1.190000 -1.930000 0.900000
v 1.190000 -1.930000 1.010000
f 388//130 389//130 390//130
usemtl fire_escape_metal
vn 0.000000 1.000000 -0.000000
v 0.830000 -1.875000 1.010000
v 1.190000 -1.875000 1.010000
v 1.190000 -1.875000 0.900000
f 391//131 392//131 393//131
usemtl fire_escape_metal
vn 0.000000 1.000000 -0.000000
v 0.830000 -1.875000 1.010000
v 1.190000 -1.875000 0.900000
v 0.830000 -1.875000 0.900000
f 394//132 395//132 396//132
usemtl fire_escape_metal
vn 0.000000 0.000000 1.000000
v 0.830000 -1.570000 1.010000
v 1.190000 -1.570000 1.010000
v 1.190000 -1.515000 1.010000
f 397//133 398//133 399//133
usemtl fire_escape_metal
vn 0.000000 0.000000 1.000000
v 0.830000 -1.570000 1.010000
v 1.190000 -1.515000 1.010000
v 0.830000 -1.515000 1.010000
f 400//134 401//134 402//134
usemtl fire_escape_metal
vn 1.000000 0.000000 -0.000000
v 1.190000 -1.570000 1.010000
v 1.190000 -1.570000 0.900000
v 1.190000 -1.515000 0.900000
f 403//135 404//135 405//135
usemtl fire_escape_metal
vn 1.000000 0.000000 -0.000000
v 1.190000 -1.570000 1.010000
v 1.190000 -1.515000 0.900000
v 1.190000 -1.515000 1.010000
f 406//136 407//136 408//136
usemtl fire_escape_metal
vn 0.000000 0.000000 -1.000000
v 1.190000 -1.570000 0.900000
v 0.830000 -1.570000 0.900000
v 0.830000 -1.515000 0.900000
f 409//137 410//137 411//137
usemtl fire_escape_metal
vn 0.000000 -0.000000 -1.000000
v 1.190000 -1.570000 0.900000
v 0.830000 -1.515000 0.900000
v 1.190000 -1.515000 0.900000
f 412//138 413//138 414//138
usemtl fire_escape_metal
vn -1.000000 0.000000 -0.000000
v 0.830000 -1.570000 0.900000
v 0.830000 -1.570000 1.010000
v 0.830000 -1.515000 1.010000
f 415//139 416//139 417//139
usemtl fire_escape_metal
vn -1.000000 0.000000 -0.000000
v 0.830000 -1.570000 0.900000
v 0.830000 -1.515000 1.010000
v 0.830000 -1.515000 0.900000
f 418//140 419//140 420//140
usemtl fire_escape_metal
vn 0.000000 -1.000000 -0.000000
v 0.830000 -1.570000 1.010000
v 0.830000 -1.570000 0.900000
v 1.190000 -1.570000 0.900000
f 421//141 422//141 423//141
usemtl fire_escape_metal
vn 0.000000 -1.000000 -0.000000
v 0.830000 -1.570000 1.010000
v 1.190000 -1.570000 0.900000
v 1.190000 -1.570000 1.010000
f 424//142 425//142 426//142
usemtl fire_escape_metal
vn 0.000000 1.000000 -0.000000
v 0.830000 -1.515000 1.010000
v 1.190000 -1.515000 1.010000
v 1.190000 -1.515000 0.900000
f 427//143 428//143 429//143
usemtl fire_escape_metal
vn 0.000000 1.000000 -0.000000
v 0.830000 -1.515000 1.010000
v 1.190000 -1.515000 0.900000
v 0.830000 -1.515000 0.900000
f 430//144 431//144 432//144
usemtl fire_escape_metal
vn 0.000000 0.000000 1.000000
v 0.830000 -1.210000 1.010000
v 1.190000 -1.210000 1.010000
v 1.190000 -1.155000 1.010000
f 433//145 434//145 435//145
usemtl fire_escape_metal
vn 0.000000 0.000000 1.000000
v 0.830000 -1.210000 1.010000
v 1.190000 -1.155000 1.010000
v 0.830000 -1.155000 1.010000
f 436//146 437//146 438//146
usemtl fire_escape_metal
vn 1.000000 0.000000 -0.000000
v 1.190000 -1.210000 1.010000
v 1.190000 -1.210000 0.900000
v 1.190000 -1.155000 0.900000
f 439//147 440//147 441//147
usemtl fire_escape_metal
vn 1.000000 0.000000 -0.000000
v 1.190000 -1.210000 1.010000
v 1.190000 -1.155000 0.900000
v 1.190000 -1.155000 1.010000
f 442//148 443//148 444//148
usemtl fire_escape_metal
vn 0.000000 0.000000 -1.000000
v 1.190000 -1.210000 0.900000
v 0.830000 -1.210000 0.900000
v 0.830000 -1.155000 0.900000
f 445//149 446//149 447//149
usemtl fire_escape_metal
vn 0.000000 -0.000000 -1.000000
v 1.190000 -1.210000 0.900000
v 0.830000 -1.155000 0.900000
v 1.190000 -1.155000 0.900000
f 448//150 449//150 450//150
usemtl fire_escape_metal
vn -1.000000 0.000000 -0.000000
v 0.830000 -1.210000 0.900000
v 0.830000 -1.210000 1.010000
v 0.830000 -1.155000 1.010000
f 451//151 452//151 453//151
usemtl fire_escape_metal
vn -1.000000 0.000000 -0.000000
v 0.830000 -1.210000 0.900000
v 0.830000 -1.155000 1.010000
v 0.830000 -1.155000 0.900000
f 454//152 455//152 456//152
usemtl fire_escape_metal
vn 0.000000 -1.000000 -0.000000
v 0.830000 -1.210000 1.010000
v 0.830000 -1.210000 0.900000
v 1.190000 -1.210000 0.900000
f 457//153 458//153 459//153
usemtl fire_escape_metal
vn 0.000000 -1.000000 -0.000000
v 0.830000 -1.210000 1.010000
v 1.190000 -1.210000 0.900000
v 1.190000 -1.210000 1.010000
f 460//154 461//154 462//154
usemtl fire_escape_metal
vn 0.000000 1.000000 -0.000000
v 0.830000 -1.155000 1.010000
v 1.190000 -1.155000 1.010000
v 1.190000 -1.155000 0.900000
f 463//155 464//155 465//155
usemtl fire_escape_metal
vn 0.000000 1.000000 -0.000000
v 0.830000 -1.155000 1.010000
v 1.190000 -1.155000 0.900000
v 0.830000 -1.155000 0.900000
f 466//156 467//156 468//156
usemtl fire_escape_metal
vn 0.000000 0.000000 1.000000
v 0.830000 -0.850000 1.010000
v 1.190000 -0.850000 1.010000
v 1.190000 -0.795000 1.010000
f 469//157 470//157 471//157
usemtl fire_escape_metal
vn 0.000000 0.000000 1.000000
v 0.830000 -0.850000 1.010000
v 1.190000 -0.795000 1.010000
v 0.830000 -0.795000 1.010000
f 472//158 473//158 474//158
usemtl fire_escape_metal
vn 1.000000 0.000000 -0.000000
v 1.190000 -0.850000 1.010000
v 1.190000 -0.850000 0.900000
v 1.190000 -0.795000 0.900000
f 475//159 476//159 477//159
usemtl fire_escape_metal
vn 1.000000 0.000000 -0.000000
v 1.190000 -0.850000 1.010000
v 1.190000 -0.795000 0.900000
v 1.190000 -0.795000 1.010000
f 478//160 479//160 480//160
usemtl fire_escape_metal
vn 0.000000 0.000000 -1.000000
v 1.190000 -0.850000 0.900000
v 0.830000 -0.850000 0.900000
v 0.830000 -0.795000 0.900000
f 481//161 482//161 483//161
usemtl fire_escape_metal
vn 0.000000 -0.000000 -1.000000
v 1.190000 -0.850000 0.900000
v 0.830000 -0.795000 0.900000
v 1.190000 -0.795000 0.900000
f 484//162 485//162 486//162
usemtl fire_escape_metal
vn -1.000000 0.000000 -0.000000
v 0.830000 -0.850000 0.900000
v 0.830000 -0.850000 1.010000
v 0.830000 -0.795000 1.010000
f 487//163 488//163 489//163
usemtl fire_escape_metal
vn -1.000000 0.000000 -0.000000
v 0.830000 -0.850000 0.900000
v 0.830000 -0.795000 1.010000
v 0.830000 -0.795000 0.900000
f 490//164 491//164 492//164
usemtl fire_escape_metal
vn 0.000000 -1.000000 -0.000000
v 0.830000 -0.850000 1.010000
v 0.830000 -0.850000 0.900000
v 1.190000 -0.850000 0.900000
f 493//165 494//165 495//165
usemtl fire_escape_metal
vn 0.000000 -1.000000 -0.000000
v 0.830000 -0.850000 1.010000
v 1.190000 -0.850000 0.900000
v 1.190000 -0.850000 1.010000
f 496//166 497//166 498//166
usemtl fire_escape_metal
vn 0.000000 1.000000 -0.000000
v 0.830000 -0.795000 1.010000
v 1.190000 -0.795000 1.010000
v 1.190000 -0.795000 0.900000
f 499//167 500//167 501//167
usemtl fire_escape_metal
vn 0.000000 1.000000 -0.000000
v 0.830000 -0.795000 1.010000
v 1.190000 -0.795000 0.900000
v 0.830000 -0.795000 0.900000
f 502//168 503//168 504//168
usemtl fire_escape_metal
vn 0.000000 0.000000 1.000000
v 0.830000 -0.490000 1.010000
v 1.190000 -0.490000 1.010000
v 1.190000 -0.435000 1.010000
f 505//169 506//169 507//169
usemtl fire_escape_metal
vn 0.000000 0.000000 1.000000
v 0.830000 -0.490000 1.010000
v 1.190000 -0.435000 1.010000
v 0.830000 -0.435000 1.010000
f 508//170 509//170 510//170
usemtl fire_escape_metal
vn 1.000000 0.000000 -0.000000
v 1.190000 -0.490000 1.010000
v 1.190000 -0.490000 0.900000
v 1.190000 -0.435000 0.900000
f 511//171 512//171 513//171
usemtl fire_escape_metal
vn 1.000000 0.000000 -0.000000
v 1.190000 -0.490000 1.010000
v 1.190000 -0.435000 0.900000
v 1.190000 -0.435000 1.010000
f 514//172 515//172 516//172
usemtl fire_escape_metal
vn 0.000000 0.000000 -1.000000
v 1.190000 -0.490000 0.900000
v 0.830000 -0.490000 0.900000
v 0.830000 -0.435000 0.900000
f 517//173 518//173 519//173
usemtl fire_escape_metal
vn 0.000000 -0.000000 -1.000000
v 1.190000 -0.490000 0.900000
v 0.830000 -0.435000 0.900000
v 1.190000 -0.435000 0.900000
f 520//174 521//174 522//174
usemtl fire_escape_metal
vn -1.000000 0.000000 -0.000000
v 0.830000 -0.490000 0.900000
v 0.830000 -0.490000 1.010000
v 0.830000 -0.435000 1.010000
f 523//175 524//175 525//175
usemtl fire_escape_metal
vn -1.000000 0.000000 -0.000000
v 0.830000 -0.490000 0.900000
v 0.830000 -0.435000 1.010000
v 0.830000 -0.435000 0.900000
f 526//176 527//176 528//176
usemtl fire_escape_metal
vn 0.000000 -1.000000 -0.000000
v 0.830000 -0.490000 1.010000
v 0.830000 -0.490000 0.900000
v 1.190000 -0.490000 0.900000
f 529//177 530//177 531//177
usemtl fire_escape_metal
vn 0.000000 -1.000000 -0.000000
v 0.830000 -0.490000 1.010000
v 1.190000 -0.490000 0.900000
v 1.190000 -0.490000 1.010000
f 532//178 533//178 534//178
usemtl fire_escape_metal
vn 0.000000 1.000000 -0.000000
v 0.830000 -0.435000 1.010000
v 1.190000 -0.435000 1.010000
v 1.190000 -0.435000 0.900000
f 535//179 536//179 537//179
usemtl fire_escape_metal
vn 0.000000 1.000000 -0.000000
v 0.830000 -0.435000 1.010000
v 1.190000 -0.435000 0.900000
v 0.830000 -0.435000 0.900000
f 538//180 539//180 540//180
usemtl fire_escape_metal
vn 0.000000 0.000000 1.000000
v 0.830000 -0.130000 1.010000
v 1.190000 -0.130000 1.010000
v 1.190000 -0.075000 1.010000
f 541//181 542//181 543//181
usemtl fire_escape_metal
vn 0.000000 0.000000 1.000000
v 0.830000 -0.130000 1.010000
v 1.190000 -0.075000 1.010000
v 0.830000 -0.075000 1.010000
f 544//182 545//182 546//182
usemtl fire_escape_metal
vn 1.000000 0.000000 -0.000000
v 1.190000 -0.130000 1.010000
v 1.190000 -0.130000 0.900000
v 1.190000 -0.075000 0.900000
f 547//183 548//183 549//183
usemtl fire_escape_metal
vn 1.000000 0.000000 -0.000000
v 1.190000 -0.130000 1.010000
v 1.190000 -0.075000 0.900000
v 1.190000 -0.075000 1.010000
f 550//184 551//184 552//184
usemtl fire_escape_metal
vn 0.000000 0.000000 -1.000000
v 1.190000 -0.130000 0.900000
v 0.830000 -0.130000 0.900000
v 0.830000 -0.075000 0.900000
f 553//185 554//185 555//185
usemtl fire_escape_metal
vn 0.000000 -0.000000 -1.000000
v 1.190000 -0.130000 0.900000
v 0.830000 -0.075000 0.900000
v 1.190000 -0.075000 0.900000
f 556//186 557//186 558//186
usemtl fire_escape_metal
vn -1.000000 0.000000 -0.000000
v 0.830000 -0.130000 0.900000
v 0.830000 -0.130000 1.010000
v 0.830000 -0.075000 1.010000
f 559//187 560//187 561//187
usemtl fire_escape_metal
vn -1.000000 0.000000 -0.000000
v 0.830000 -0.130000 0.900000
v 0.830000 -0.075000 1.010000
v 0.830000 -0.075000 0.900000
f 562//188 563//188 564//188
usemtl fire_escape_metal
vn 0.000000 -1.000000 -0.000000
v 0.830000 -0.130000 1.010000
v 0.830000 -0.130000 0.900000
v 1.190000 -0.130000 0.900000
f 565//189 566//189 567//189
usemtl fire_escape_metal
vn 0.000000 -1.000000 -0.000000
v 0.830000 -0.130000 1.010000
v 1.190000 -0.130000 0.900000
v 1.190000 -0.130000 1.010000
f 568//190 569//190 570//190
usemtl fire_escape_metal
vn 0.000000 1.000000 -0.000000
v 0.830000 -0.075000 1.010000
v 1.190000 -0.075000 1.010000
v 1.190000 -0.075000 0.900000
f 571//191 572//191 573//191
usemtl fire_escape_metal
vn 0.000000 1.000000 -0.000000
v 0.830000 -0.075000 1.010000
v 1.190000 -0.075000 0.900000
v 0.830000 -0.075000 0.900000
f 574//192 575//192 576//192
