mtllib hydrant.mtl
o unit_fire_hydrant
usemtl hydrant_dark
vn 0.923880 0.000000 -0.382683
v 0.270000 0.000000 -0.000000
v 0.190919 0.000000 -0.190919
v 0.190919 0.100000 -0.190919
f 1//1 2//1 3//1
usemtl hydrant_dark
vn 0.923880 -0.000000 -0.382683
v 0.270000 0.000000 -0.000000
v 0.190919 0.100000 -0.190919
v 0.270000 0.100000 -0.000000
f 4//2 5//2 6//2
usemtl hydrant_dark
vn 0.000000 -1.000000 -0.000000
v 0.000000 0.000000 0.000000
v 0.190919 0.000000 -0.190919
v 0.270000 0.000000 -0.000000
f 7//3 8//3 9//3
usemtl hydrant_dark
vn 0.000000 1.000000 -0.000000
v 0.000000 0.100000 0.000000
v 0.270000 0.100000 -0.000000
v 0.190919 0.100000 -0.190919
f 10//4 11//4 12//4
usemtl hydrant_dark
vn 0.382683 0.000000 -0.923880
v 0.190919 0.000000 -0.190919
v 0.000000 0.000000 -0.270000
v 0.000000 0.100000 -0.270000
f 13//5 14//5 15//5
usemtl hydrant_dark
vn 0.382683 -0.000000 -0.923880
v 0.190919 0.000000 -0.190919
v 0.000000 0.100000 -0.270000
v 0.190919 0.100000 -0.190919
f 16//6 17//6 18//6
usemtl hydrant_dark
vn 0.000000 -1.000000 -0.000000
v 0.000000 0.000000 0.000000
v 0.000000 0.000000 -0.270000
v 0.190919 0.000000 -0.190919
f 19//7 20//7 21//7
usemtl hydrant_dark
vn 0.000000 1.000000 -0.000000
v 0.000000 0.100000 0.000000
v 0.190919 0.100000 -0.190919
v 0.000000 0.100000 -0.270000
f 22//8 23//8 24//8
usemtl hydrant_dark
vn -0.382683 0.000000 -0.923880
v 0.000000 0.000000 -0.270000
v -0.190919 0.000000 -0.190919
v -0.190919 0.100000 -0.190919
f 25//9 26//9 27//9
usemtl hydrant_dark
vn -0.382683 0.000000 -0.923880
v 0.000000 0.000000 -0.270000
v -0.190919 0.100000 -0.190919
v 0.000000 0.100000 -0.270000
f 28//10 29//10 30//10
usemtl hydrant_dark
vn 0.000000 -1.000000 -0.000000
v 0.000000 0.000000 0.000000
v -0.190919 0.000000 -0.190919
v 0.000000 0.000000 -0.270000
f 31//11 32//11 33//11
usemtl hydrant_dark
vn 0.000000 1.000000 0.000000
v 0.000000 0.100000 0.000000
v 0.000000 0.100000 -0.270000
v -0.190919 0.100000 -0.190919
f 34//12 35//12 36//12
usemtl hydrant_dark
vn -0.923880 0.000000 -0.382683
v -0.190919 0.000000 -0.190919
v -0.270000 0.000000 -0.000000
v -0.270000 0.100000 -0.000000
f 37//13 38//13 39//13
usemtl hydrant_dark
vn -0.923880 0.000000 -0.382683
v -0.190919 0.000000 -0.190919
v -0.270000 0.100000 -0.000000
v -0.190919 0.100000 -0.190919
f 40//14 41//14 42//14
usemtl hydrant_dark
vn 0.000000 -1.000000 -0.000000
v 0.000000 0.000000 0.000000
v -0.270000 0.000000 -0.000000
v -0.190919 0.000000 -0.190919
f 43//15 44//15 45//15
usemtl hydrant_dark
vn 0.000000 1.000000 -0.000000
v 0.000000 0.100000 0.000000
v -0.190919 0.100000 -0.190919
v -0.270000 0.100000 -0.000000
f 46//16 47//16 48//16
usemtl hydrant_dark
vn -0.923880 0.000000 0.382683
v -0.270000 0.000000 -0.000000
v -0.190919 0.000000 0.190919
v -0.190919 0.100000 0.190919
f 49//17 50//17 51//17
usemtl hydrant_dark
vn -0.923880 0.000000 0.382683
v -0.270000 0.000000 -0.000000
v -0.190919 0.100000 0.190919
v -0.270000 0.100000 -0.000000
f 52//18 53//18 54//18
usemtl hydrant_dark
vn -0.000000 -1.000000 -0.000000
v 0.000000 0.000000 0.000000
v -0.190919 0.000000 0.190919
v -0.270000 0.000000 -0.000000
f 55//19 56//19 57//19
usemtl hydrant_dark
vn 0.000000 1.000000 -0.000000
v 0.000000 0.100000 0.000000
v -0.270000 0.100000 -0.000000
v -0.190919 0.100000 0.190919
f 58//20 59//20 60//20
usemtl hydrant_dark
vn -0.382683 0.000000 0.923880
v -0.190919 0.000000 0.190919
v -0.000000 0.000000 0.270000
v -0.000000 0.100000 0.270000
f 61//21 62//21 63//21
usemtl hydrant_dark
vn -0.382683 0.000000 0.923880
v -0.190919 0.000000 0.190919
v -0.000000 0.100000 0.270000
v -0.190919 0.100000 0.190919
f 64//22 65//22 66//22
usemtl hydrant_dark
vn 0.000000 -1.000000 -0.000000
v 0.000000 0.000000 0.000000
v -0.000000 0.000000 0.270000
v -0.190919 0.000000 0.190919
f 67//23 68//23 69//23
usemtl hydrant_dark
vn 0.000000 1.000000 -0.000000
v 0.000000 0.100000 0.000000
v -0.190919 0.100000 0.190919
v -0.000000 0.100000 0.270000
f 70//24 71//24 72//24
usemtl hydrant_dark
vn 0.382683 0.000000 0.923880
v -0.000000 0.000000 0.270000
v 0.190919 0.000000 0.190919
v 0.190919 0.100000 0.190919
f 73//25 74//25 75//25
usemtl hydrant_dark
vn 0.382683 0.000000 0.923880
v -0.000000 0.000000 0.270000
v 0.190919 0.100000 0.190919
v -0.000000 0.100000 0.270000
f 76//26 77//26 78//26
usemtl hydrant_dark
vn 0.000000 -1.000000 0.000000
v 0.000000 0.000000 0.000000
v 0.190919 0.000000 0.190919
v -0.000000 0.000000 0.270000
f 79//27 80//27 81//27
usemtl hydrant_dark
vn 0.000000 1.000000 -0.000000
v 0.000000 0.100000 0.000000
v -0.000000 0.100000 0.270000
v 0.190919 0.100000 0.190919
f 82//28 83//28 84//28
usemtl hydrant_dark
vn 0.923880 0.000000 0.382683
v 0.190919 0.000000 0.190919
v 0.270000 0.000000 -0.000000
v 0.270000 0.100000 -0.000000
f 85//29 86//29 87//29
usemtl hydrant_dark
vn 0.923880 0.000000 0.382683
v 0.190919 0.000000 0.190919
v 0.270000 0.100000 -0.000000
v 0.190919 0.100000 0.190919
f 88//30 89//30 90//30
usemtl hydrant_dark
vn 0.000000 -1.000000 -0.000000
v 0.000000 0.000000 0.000000
v 0.270000 0.000000 -0.000000
v 0.190919 0.000000 0.190919
f 91//31 92//31 93//31
usemtl hydrant_dark
vn -0.000000 1.000000 -0.000000
v 0.000000 0.100000 0.000000
v 0.190919 0.100000 0.190919
v 0.270000 0.100000 -0.000000
f 94//32 95//32 96//32
usemtl hydrant_red
vn 0.923880 0.000000 -0.382683
v 0.190000 0.100000 -0.000000
v 0.134350 0.100000 -0.134350
v 0.134350 0.700000 -0.134350
f 97//33 98//33 99//33
usemtl hydrant_red
vn 0.923880 -0.000000 -0.382683
v 0.190000 0.100000 -0.000000
v 0.134350 0.700000 -0.134350
v 0.190000 0.700000 -0.000000
f 100//34 101//34 102//34
usemtl hydrant_red
vn 0.000000 -1.000000 -0.000000
v 0.000000 0.100000 0.000000
v 0.134350 0.100000 -0.134350
v 0.190000 0.100000 -0.000000
f 103//35 104//35 105//35
usemtl hydrant_red
vn 0.000000 1.000000 -0.000000
v 0.000000 0.700000 0.000000
v 0.190000 0.700000 -0.000000
v 0.134350 0.700000 -0.134350
f 106//36 107//36 108//36
usemtl hydrant_red
vn 0.382683 0.000000 -0.923880
v 0.134350 0.100000 -0.134350
v 0.000000 0.100000 -0.190000
v 0.000000 0.700000 -0.190000
f 109//37 110//37 111//37
usemtl hydrant_red
vn 0.382683 -0.000000 -0.923880
v 0.134350 0.100000 -0.134350
v 0.000000 0.700000 -0.190000
v 0.134350 0.700000 -0.134350
f 112//38 113//38 114//38
usemtl hydrant_red
vn 0.000000 -1.000000 -0.000000
v 0.000000 0.100000 0.000000
v 0.000000 0.100000 -0.190000
v 0.134350 0.100000 -0.134350
f 115//39 116//39 117//39
usemtl hydrant_red
vn 0.000000 1.000000 -0.000000
v 0.000000 0.700000 0.000000
v 0.134350 0.700000 -0.134350
v 0.000000 0.700000 -0.190000
f 118//40 119//40 120//40
usemtl hydrant_red
vn -0.382683 0.000000 -0.923880
v 0.000000 0.100000 -0.190000
v -0.134350 0.100000 -0.134350
v -0.134350 0.700000 -0.134350
f 121//41 122//41 123//41
usemtl hydrant_red
vn -0.382683 0.000000 -0.923880
v 0.000000 0.100000 -0.190000
v -0.134350 0.700000 -0.134350
v 0.000000 0.700000 -0.190000
f 124//42 125//42 126//42
usemtl hydrant_red
vn 0.000000 -1.000000 -0.000000
v 0.000000 0.100000 0.000000
v -0.134350 0.100000 -0.134350
v 0.000000 0.100000 -0.190000
f 127//43 128//43 129//43
usemtl hydrant_red
vn 0.000000 1.000000 0.000000
v 0.000000 0.700000 0.000000
v 0.000000 0.700000 -0.190000
v -0.134350 0.700000 -0.134350
f 130//44 131//44 132//44
usemtl hydrant_red
vn -0.923880 0.000000 -0.382683
v -0.134350 0.100000 -0.134350
v -0.190000 0.100000 -0.000000
v -0.190000 0.700000 -0.000000
f 133//45 134//45 135//45
usemtl hydrant_red
vn -0.923880 0.000000 -0.382683
v -0.134350 0.100000 -0.134350
v -0.190000 0.700000 -0.000000
v -0.134350 0.700000 -0.134350
f 136//46 137//46 138//46
usemtl hydrant_red
vn 0.000000 -1.000000 -0.000000
v 0.000000 0.100000 0.000000
v -0.190000 0.100000 -0.000000
v -0.134350 0.100000 -0.134350
f 139//47 140//47 141//47
usemtl hydrant_red
vn 0.000000 1.000000 -0.000000
v 0.000000 0.700000 0.000000
v -0.134350 0.700000 -0.134350
v -0.190000 0.700000 -0.000000
f 142//48 143//48 144//48
usemtl hydrant_red
vn -0.923880 0.000000 0.382683
v -0.190000 0.100000 -0.000000
v -0.134350 0.100000 0.134350
v -0.134350 0.700000 0.134350
f 145//49 146//49 147//49
usemtl hydrant_red
vn -0.923880 0.000000 0.382683
v -0.190000 0.100000 -0.000000
v -0.134350 0.700000 0.134350
v -0.190000 0.700000 -0.000000
f 148//50 149//50 150//50
usemtl hydrant_red
vn -0.000000 -1.000000 -0.000000
v 0.000000 0.100000 0.000000
v -0.134350 0.100000 0.134350
v -0.190000 0.100000 -0.000000
f 151//51 152//51 153//51
usemtl hydrant_red
vn 0.000000 1.000000 -0.000000
v 0.000000 0.700000 0.000000
v -0.190000 0.700000 -0.000000
v -0.134350 0.700000 0.134350
f 154//52 155//52 156//52
usemtl hydrant_red
vn -0.382683 0.000000 0.923880
v -0.134350 0.100000 0.134350
v -0.000000 0.100000 0.190000
v -0.000000 0.700000 0.190000
f 157//53 158//53 159//53
usemtl hydrant_red
vn -0.382683 0.000000 0.923880
v -0.134350 0.100000 0.134350
v -0.000000 0.700000 0.190000
v -0.134350 0.700000 0.134350
f 160//54 161//54 162//54
usemtl hydrant_red
vn 0.000000 -1.000000 -0.000000
v 0.000000 0.100000 0.000000
v -0.000000 0.100000 0.190000
v -0.134350 0.100000 0.134350
f 163//55 164//55 165//55
usemtl hydrant_red
vn 0.000000 1.000000 -0.000000
v 0.000000 0.700000 0.000000
v -0.134350 0.700000 0.134350
v -0.000000 0.700000 0.190000
f 166//56 167//56 168//56
usemtl hydrant_red
vn 0.382683 0.000000 0.923880
v -0.000000 0.100000 0.190000
v 0.134350 0.100000 0.134350
v 0.134350 0.700000 0.134350
f 169//57 170//57 171//57
usemtl hydrant_red
vn 0.382683 0.000000 0.923880
v -0.000000 0.100000 0.190000
v 0.134350 0.700000 0.134350
v -0.000000 0.700000 0.190000
f 172//58 173//58 174//58
usemtl hydrant_red
vn 0.000000 -1.000000 0.000000
v 0.000000 0.100000 0.000000
v 0.134350 0.100000 0.134350
v -0.000000 0.100000 0.190000
f 175//59 176//59 177//59
usemtl hydrant_red
vn 0.000000 1.000000 -0.000000
v 0.000000 0.700000 0.000000
v -0.000000 0.700000 0.190000
v 0.134350 0.700000 0.134350
f 178//60 179//60 180//60
usemtl hydrant_red
vn 0.923880 0.000000 0.382683
v 0.134350 0.100000 0.134350
v 0.190000 0.100000 -0.000000
v 0.190000 0.700000 -0.000000
f 181//61 182//61 183//61
usemtl hydrant_red
vn 0.923880 0.000000 0.382683
v 0.134350 0.100000 0.134350
v 0.190000 0.700000 -0.000000
v 0.134350 0.700000 0.134350
f 184//62 185//62 186//62
usemtl hydrant_red
vn 0.000000 -1.000000 -0.000000
v 0.000000 0.100000 0.000000
v 0.190000 0.100000 -0.000000
v 0.134350 0.100000 0.134350
f 187//63 188//63 189//63
usemtl hydrant_red
vn -0.000000 1.000000 -0.000000
v 0.000000 0.700000 0.000000
v 0.134350 0.700000 0.134350
v 0.190000 0.700000 -0.000000
f 190//64 191//64 192//64
usemtl hydrant_red
vn 0.838717 0.419358 -0.347408
v 0.250000 0.700000 -0.000000
v 0.176777 0.700000 -0.176777
v 0.113137 0.880000 -0.113137
f 193//65 194//65 195//65
usemtl hydrant_red
vn 0.838717 0.419358 -0.347408
v 0.250000 0.700000 -0.000000
v 0.113137 0.880000 -0.113137
v 0.160000 0.880000 -0.000000
f 196//66 197//66 198//66
usemtl hydrant_red
vn 0.000000 -1.000000 -0.000000
v 0.000000 0.700000 0.000000
v 0.176777 0.700000 -0.176777
v 0.250000 0.700000 -0.000000
f 199//67 200//67 201//67
usemtl hydrant_red
vn 0.000000 1.000000 -0.000000
v 0.000000 0.880000 0.000000
v 0.160000 0.880000 -0.000000
v 0.113137 0.880000 -0.113137
f 202//68 203//68 204//68
usemtl hydrant_red
vn 0.347408 0.419358 -0.838717
v 0.176777 0.700000 -0.176777
v 0.000000 0.700000 -0.250000
v 0.000000 0.880000 -0.160000
f 205//69 206//69 207//69
usemtl hydrant_red
vn 0.347408 0.419358 -0.838717
v 0.176777 0.700000 -0.176777
v 0.000000 0.880000 -0.160000
v 0.113137 0.880000 -0.113137
f 208//70 209//70 210//70
usemtl hydrant_red
vn 0.000000 -1.000000 -0.000000
v 0.000000 0.700000 0.000000
v 0.000000 0.700000 -0.250000
v 0.176777 0.700000 -0.176777
f 211//71 212//71 213//71
usemtl hydrant_red
vn 0.000000 1.000000 -0.000000
v 0.000000 0.880000 0.000000
v 0.113137 0.880000 -0.113137
v 0.000000 0.880000 -0.160000
f 214//72 215//72 216//72
usemtl hydrant_red
vn -0.347408 0.419358 -0.838717
v 0.000000 0.700000 -0.250000
v -0.176777 0.700000 -0.176777
v -0.113137 0.880000 -0.113137
f 217//73 218//73 219//73
usemtl hydrant_red
vn -0.347408 0.419358 -0.838717
v 0.000000 0.700000 -0.250000
v -0.113137 0.880000 -0.113137
v 0.000000 0.880000 -0.160000
f 220//74 221//74 222//74
usemtl hydrant_red
vn 0.000000 -1.000000 -0.000000
v 0.000000 0.700000 0.000000
v -0.176777 0.700000 -0.176777
v 0.000000 0.700000 -0.250000
f 223//75 224//75 225//75
usemtl hydrant_red
vn 0.000000 1.000000 0.000000
v 0.000000 0.880000 0.000000
v 0.000000 0.880000 -0.160000
v -0.113137 0.880000 -0.113137
f 226//76 227//76 228//76
usemtl hydrant_red
vn -0.838717 0.419358 -0.347408
v -0.176777 0.700000 -0.176777
v -0.250000 0.700000 -0.000000
v -0.160000 0.880000 -0.000000
f 229//77 230//77 231//77
usemtl hydrant_red
vn -0.838717 0.419358 -0.347408
v -0.176777 0.700000 -0.176777
v -0.160000 0.880000 -0.000000
v -0.113137 0.880000 -0.113137
f 232//78 233//78 234//78
usemtl hydrant_red
vn 0.000000 -1.000000 -0.000000
v 0.000000 0.700000 0.000000
v -0.250000 0.700000 -0.000000
v -0.176777 0.700000 -0.176777
f 235//79 236//79 237//79
usemtl hydrant_red
vn 0.000000 1.000000 -0.000000
v 0.000000 0.880000 0.000000
v -0.113137 0.880000 -0.113137
v -0.160000 0.880000 -0.000000
f 238//80 239//80 240//80
usemtl hydrant_red
vn -0.838717 0.419358 0.347408
v -0.250000 0.700000 -0.000000
v -0.176777 0.700000 0.176777
v -0.113137 0.880000 0.113137
f 241//81 242//81 243//81
usemtl hydrant_red
vn -0.838717 0.419358 0.347408
v -0.250000 0.700000 -0.000000
v -0.113137 0.880000 0.113137
v -0.160000 0.880000 -0.000000
f 244//82 245//82 246//82
usemtl hydrant_red
vn -0.000000 -1.000000 -0.000000
v 0.000000 0.700000 0.000000
v -0.176777 0.700000 0.176777
v -0.250000 0.700000 -0.000000
f 247//83 248//83 249//83
usemtl hydrant_red
vn 0.000000 1.000000 -0.000000
v 0.000000 0.880000 0.000000
v -0.160000 0.880000 -0.000000
v -0.113137 0.880000 0.113137
f 250//84 251//84 252//84
usemtl hydrant_red
vn -0.347408 0.419358 0.838717
v -0.176777 0.700000 0.176777
v -0.000000 0.700000 0.250000
v -0.000000 0.880000 0.160000
f 253//85 254//85 255//85
usemtl hydrant_red
vn -0.347408 0.419358 0.838717
v -0.176777 0.700000 0.176777
v -0.000000 0.880000 0.160000
v -0.113137 0.880000 0.113137
f 256//86 257//86 258//86
usemtl hydrant_red
vn 0.000000 -1.000000 -0.000000
v 0.000000 0.700000 0.000000
v -0.000000 0.700000 0.250000
v -0.176777 0.700000 0.176777
f 259//87 260//87 261//87
usemtl hydrant_red
vn 0.000000 1.000000 -0.000000
v 0.000000 0.880000 0.000000
v -0.113137 0.880000 0.113137
v -0.000000 0.880000 0.160000
f 262//88 263//88 264//88
usemtl hydrant_red
vn 0.347408 0.419358 0.838717
v -0.000000 0.700000 0.250000
v 0.176777 0.700000 0.176777
v 0.113137 0.880000 0.113137
f 265//89 266//89 267//89
usemtl hydrant_red
vn 0.347408 0.419358 0.838717
v -0.000000 0.700000 0.250000
v 0.113137 0.880000 0.113137
v -0.000000 0.880000 0.160000
f 268//90 269//90 270//90
usemtl hydrant_red
vn 0.000000 -1.000000 0.000000
v 0.000000 0.700000 0.000000
v 0.176777 0.700000 0.176777
v -0.000000 0.700000 0.250000
f 271//91 272//91 273//91
usemtl hydrant_red
vn 0.000000 1.000000 -0.000000
v 0.000000 0.880000 0.000000
v -0.000000 0.880000 0.160000
v 0.113137 0.880000 0.113137
f 274//92 275//92 276//92
usemtl hydrant_red
vn 0.838717 0.419358 0.347408
v 0.176777 0.700000 0.176777
v 0.250000 0.700000 -0.000000
v 0.160000 0.880000 -0.000000
f 277//93 278//93 279//93
usemtl hydrant_red
vn 0.838717 0.419358 0.347408
v 0.176777 0.700000 0.176777
v 0.160000 0.880000 -0.000000
v 0.113137 0.880000 0.113137
f 280//94 281//94 282//94
usemtl hydrant_red
vn 0.000000 -1.000000 -0.000000
v 0.000000 0.700000 0.000000
v 0.250000 0.700000 -0.000000
v 0.176777 0.700000 0.176777
f 283//95 284//95 285//95
usemtl hydrant_red
vn -0.000000 1.000000 -0.000000
v 0.000000 0.880000 0.000000
v 0.113137 0.880000 0.113137
v 0.160000 0.880000 -0.000000
f 286//96 287//96 288//96
usemtl hydrant_dark
vn 0.923880 0.000000 -0.382683
v 0.080000 0.880000 -0.000000
v 0.056569 0.880000 -0.056569
v 0.056569 1.000000 -0.056569
f 289//97 290//97 291//97
usemtl hydrant_dark
vn 0.923880 -0.000000 -0.382683
v 0.080000 0.880000 -0.000000
v 0.056569 1.000000 -0.056569
v 0.080000 1.000000 -0.000000
f 292//98 293//98 294//98
usemtl hydrant_dark
vn 0.000000 -1.000000 -0.000000
v 0.000000 0.880000 0.000000
v 0.056569 0.880000 -0.056569
v 0.080000 0.880000 -0.000000
f 295//99 296//99 297//99
usemtl hydrant_dark
vn 0.000000 1.000000 -0.000000
v 0.000000 1.000000 0.000000
v 0.080000 1.000000 -0.000000
v 0.056569 1.000000 -0.056569
f 298//100 299//100 300//100
usemtl hydrant_dark
vn 0.382683 0.000000 -0.923880
v 0.056569 0.880000 -0.056569
v 0.000000 0.880000 -0.080000
v 0.000000 1.000000 -0.080000
f 301//101 302//101 303//101
usemtl hydrant_dark
vn 0.382683 -0.000000 -0.923880
v 0.056569 0.880000 -0.056569
v 0.000000 1.000000 -0.080000
v 0.056569 1.000000 -0.056569
f 304//102 305//102 306//102
usemtl hydrant_dark
vn 0.000000 -1.000000 -0.000000
v 0.000000 0.880000 0.000000
v 0.000000 0.880000 -0.080000
v 0.056569 0.880000 -0.056569
f 307//103 308//103 309//103
usemtl hydrant_dark
vn 0.000000 1.000000 -0.000000
v 0.000000 1.000000 0.000000
v 0.056569 1.000000 -0.056569
v 0.000000 1.000000 -0.080000
f 310//104 311//104 312//104
usemtl hydrant_dark
vn -0.382683 0.000000 -0.923880
v 0.000000 0.880000 -0.080000
v -0.056569 0.880000 -0.056569
v -0.056569 1.000000 -0.056569
f 313//105 314//105 315//105
usemtl hydrant_dark
vn -0.382683 0.000000 -0.923880
v 0.000000 0.880000 -0.080000
v -0.056569 1.000000 -0.056569
v 0.000000 1.000000 -0.080000
f 316//106 317//106 318//106
usemtl hydrant_dark
vn 0.000000 -1.000000 -0.000000
v 0.000000 0.880000 0.000000
v -0.056569 0.880000 -0.056569
v 0.000000 0.880000 -0.080000
f 319//107 320//107 321//107
usemtl hydrant_dark
vn 0.000000 1.000000 0.000000
v 0.000000 1.000000 0.000000
v 0.000000 1.000000 -0.080000
v -0.056569 1.000000 -0.056569
f 322//108 323//108 324//108
usemtl hydrant_dark
vn -0.923880 0.000000 -0.382683
v -0.056569 0.880000 -0.056569
v -0.080000 0.880000 -0.000000
v -0.080000 1.000000 -0.000000
f 325//109 326//109 327//109
usemtl hydrant_dark
vn -0.923880 0.000000 -0.382683
v -0.056569 0.880000 -0.056569
v -0.080000 1.000000 -0.000000
v -0.056569 1.000000 -0.056569
f 328//110 329//110 330//110
usemtl hydrant_dark
vn 0.000000 -1.000000 -0.000000
v 0.000000 0.880000 0.000000
v -0.080000 0.880000 -0.000000
v -0.056569 0.880000 -0.056569
f 331//111 332//111 333//111
usemtl hydrant_dark
vn 0.000000 1.000000 -0.000000
v 0.000000 1.000000 0.000000
v -0.056569 1.000000 -0.056569
v -0.080000 1.000000 -0.000000
f 334//112 335//112 336//112
usemtl hydrant_dark
vn -0.923880 0.000000 0.382683
v -0.080000 0.880000 -0.000000
v -0.056569 0.880000 0.056569
v -0.056569 1.000000 0.056569
f 337//113 338//113 339//113
usemtl hydrant_dark
vn -0.923880 0.000000 0.382683
v -0.080000 0.880000 -0.000000
v -0.056569 1.000000 0.056569
v -0.080000 1.000000 -0.000000
f 340//114 341//114 342//114
usemtl hydrant_dark
vn -0.000000 -1.000000 -0.000000
v 0.000000 0.880000 0.000000
v -0.056569 0.880000 0.056569
v -0.080000 0.880000 -0.000000
f 343//115 344//115 345//115
usemtl hydrant_dark
vn 0.000000 1.000000 -0.000000
v 0.000000 1.000000 0.000000
v -0.080000 1.000000 -0.000000
v -0.056569 1.000000 0.056569
f 346//116 347//116 348//116
usemtl hydrant_dark
vn -0.382683 0.000000 0.923880
v -0.056569 0.880000 0.056569
v -0.000000 0.880000 0.080000
v -0.000000 1.000000 0.080000
f 349//117 350//117 351//117
usemtl hydrant_dark
vn -0.382683 0.000000 0.923880
v -0.056569 0.880000 0.056569
v -0.000000 1.000000 0.080000
v -0.056569 1.000000 0.056569
f 352//118 353//118 354//118
usemtl hydrant_dark
vn 0.000000 -1.000000 -0.000000
v 0.000000 0.880000 0.000000
v -0.000000 0.880000 0.080000
v -0.056569 0.880000 0.056569
f 355//119 356//119 357//119
usemtl hydrant_dark
vn 0.000000 1.000000 -0.000000
v 0.000000 1.000000 0.000000
v -0.056569 1.000000 0.056569
v -0.000000 1.000000 0.080000
f 358//120 359//120 360//120
usemtl hydrant_dark
vn 0.382683 0.000000 0.923880
v -0.000000 0.880000 0.080000
v 0.056569 0.880000 0.056569
v 0.056569 1.000000 0.056569
f 361//121 362//121 363//121
usemtl hydrant_dark
vn 0.382683 0.000000 0.923880
v -0.000000 0.880000 0.080000
v 0.056569 1.000000 0.056569
v -0.000000 1.000000 0.080000
f 364//122 365//122 366//122
usemtl hydrant_dark
vn 0.000000 -1.000000 0.000000
v 0.000000 0.880000 0.000000
v 0.056569 0.880000 0.056569
v -0.000000 0.880000 0.080000
f 367//123 368//123 369//123
usemtl hydrant_dark
vn 0.000000 1.000000 -0.000000
v 0.000000 1.000000 0.000000
v -0.000000 1.000000 0.080000
v 0.056569 1.000000 0.056569
f 370//124 371//124 372//124
usemtl hydrant_dark
vn 0.923880 0.000000 0.382683
v 0.056569 0.880000 0.056569
v 0.080000 0.880000 -0.000000
v 0.080000 1.000000 -0.000000
f 373//125 374//125 375//125
usemtl hydrant_dark
vn 0.923880 0.000000 0.382683
v 0.056569 0.880000 0.056569
v 0.080000 1.000000 -0.000000
v 0.056569 1.000000 0.056569
f 376//126 377//126 378//126
usemtl hydrant_dark
vn 0.000000 -1.000000 -0.000000
v 0.000000 0.880000 0.000000
v 0.080000 0.880000 -0.000000
v 0.056569 0.880000 0.056569
f 379//127 380//127 381//127
usemtl hydrant_dark
vn -0.000000 1.000000 -0.000000
v 0.000000 1.000000 0.000000
v 0.056569 1.000000 0.056569
v 0.080000 1.000000 -0.000000
f 382//128 383//128 384//128
usemtl hydrant_red
vn 0.000000 0.000000 1.000000
v -0.380000 0.420000 0.120000
v 0.380000 0.420000 0.120000
v 0.380000 0.620000 0.120000
f 385//129 386//129 387//129
usemtl hydrant_red
vn 0.000000 0.000000 1.000000
v -0.380000 0.420000 0.120000
v 0.380000 0.620000 0.120000
v -0.380000 0.620000 0.120000
f 388//130 389//130 390//130
usemtl hydrant_red
vn 1.000000 0.000000 -0.000000
v 0.380000 0.420000 0.120000
v 0.380000 0.420000 -0.120000
v 0.380000 0.620000 -0.120000
f 391//131 392//131 393//131
usemtl hydrant_red
vn 1.000000 0.000000 -0.000000
v 0.380000 0.420000 0.120000
v 0.380000 0.620000 -0.120000
v 0.380000 0.620000 0.120000
f 394//132 395//132 396//132
usemtl hydrant_red
vn 0.000000 0.000000 -1.000000
v 0.380000 0.420000 -0.120000
v -0.380000 0.420000 -0.120000
v -0.380000 0.620000 -0.120000
f 397//133 398//133 399//133
usemtl hydrant_red
vn 0.000000 -0.000000 -1.000000
v 0.380000 0.420000 -0.120000
v -0.380000 0.620000 -0.120000
v 0.380000 0.620000 -0.120000
f 400//134 401//134 402//134
usemtl hydrant_red
vn -1.000000 0.000000 -0.000000
v -0.380000 0.420000 -0.120000
v -0.380000 0.420000 0.120000
v -0.380000 0.620000 0.120000
f 403//135 404//135 405//135
usemtl hydrant_red
vn -1.000000 0.000000 -0.000000
v -0.380000 0.420000 -0.120000
v -0.380000 0.620000 0.120000
v -0.380000 0.620000 -0.120000
f 406//136 407//136 408//136
usemtl hydrant_red
vn 0.000000 -1.000000 -0.000000
v -0.380000 0.420000 0.120000
v -0.380000 0.420000 -0.120000
v 0.380000 0.420000 -0.120000
f 409//137 410//137 411//137
usemtl hydrant_red
vn 0.000000 -1.000000 -0.000000
v -0.380000 0.420000 0.120000
v 0.380000 0.420000 -0.120000
v 0.380000 0.420000 0.120000
f 412//138 413//138 414//138
usemtl hydrant_red
vn 0.000000 1.000000 -0.000000
v -0.380000 0.620000 0.120000
v 0.380000 0.620000 0.120000
v 0.380000 0.620000 -0.120000
f 415//139 416//139 417//139
usemtl hydrant_red
vn 0.000000 1.000000 -0.000000
v -0.380000 0.620000 0.120000
v 0.380000 0.620000 -0.120000
v -0.380000 0.620000 -0.120000
f 418//140 419//140 420//140
