mtllib trash_can.mtl
o street_trash_can
usemtl trash_body
vn 0.923352 0.033781 -0.382465
v 0.340000 0.000000 -0.000000
v 0.240416 0.000000 -0.240416
v 0.219203 0.820000 -0.219203
f 1//1 2//1 3//1
usemtl trash_body
vn 0.923352 0.033781 -0.382465
v 0.340000 0.000000 -0.000000
v 0.219203 0.820000 -0.219203
v 0.310000 0.820000 -0.000000
f 4//2 5//2 6//2
usemtl trash_body
vn 0.000000 -1.000000 -0.000000
v 0.000000 0.000000 0.000000
v 0.240416 0.000000 -0.240416
v 0.340000 0.000000 -0.000000
f 7//3 8//3 9//3
usemtl trash_body
vn 0.000000 1.000000 -0.000000
v 0.000000 0.820000 0.000000
v 0.310000 0.820000 -0.000000
v 0.219203 0.820000 -0.219203
f 10//4 11//4 12//4
usemtl trash_body
vn 0.382465 0.033781 -0.923352
v 0.240416 0.000000 -0.240416
v 0.000000 0.000000 -0.340000
v 0.000000 0.820000 -0.310000
f 13//5 14//5 15//5
usemtl trash_body
vn 0.382465 0.033781 -0.923352
v 0.240416 0.000000 -0.240416
v 0.000000 0.820000 -0.310000
v 0.219203 0.820000 -0.219203
f 16//6 17//6 18//6
usemtl trash_body
vn 0.000000 -1.000000 -0.000000
v 0.000000 0.000000 0.000000
v 0.000000 0.000000 -0.340000
v 0.240416 0.000000 -0.240416
f 19//7 20//7 21//7
usemtl trash_body
vn 0.000000 1.000000 -0.000000
v 0.000000 0.820000 0.000000
v 0.219203 0.820000 -0.219203
v 0.000000 0.820000 -0.310000
f 22//8 23//8 24//8
usemtl trash_body
vn -0.382465 0.033781 -0.923352
v 0.000000 0.000000 -0.340000
v -0.240416 0.000000 -0.240416
v -0.219203 0.820000 -0.219203
f 25//9 26//9 27//9
usemtl trash_body
vn -0.382465 0.033781 -0.923352
v 0.000000 0.000000 -0.340000
v -0.219203 0.820000 -0.219203
v 0.000000 0.820000 -0.310000
f 28//10 29//10 30//10
usemtl trash_body
vn 0.000000 -1.000000 -0.000000
v 0.000000 0.000000 0.000000
v -0.240416 0.000000 -0.240416
v 0.000000 0.000000 -0.340000
f 31//11 32//11 33//11
usemtl trash_body
vn 0.000000 1.000000 0.000000
v 0.000000 0.820000 0.000000
v 0.000000 0.820000 -0.310000
v -0.219203 0.820000 -0.219203
f 34//12 35//12 36//12
usemtl trash_body
vn -0.923352 0.033781 -0.382465
v -0.240416 0.000000 -0.240416
v -0.340000 0.000000 -0.000000
v -0.310000 0.820000 -0.000000
f 37//13 38//13 39//13
usemtl trash_body
vn -0.923352 0.033781 -0.382465
v -0.240416 0.000000 -0.240416
v -0.310000 0.820000 -0.000000
v -0.219203 0.820000 -0.219203
f 40//14 41//14 42//14
usemtl trash_body
vn 0.000000 -1.000000 -0.000000
v 0.000000 0.000000 0.000000
v -0.340000 0.000000 -0.000000
v -0.240416 0.000000 -0.240416
f 43//15 44//15 45//15
usemtl trash_body
vn 0.000000 1.000000 -0.000000
v 0.000000 0.820000 0.000000
v -0.219203 0.820000 -0.219203
v -0.310000 0.820000 -0.000000
f 46//16 47//16 48//16
usemtl trash_body
vn -0.923352 0.033781 0.382465
v -0.340000 0.000000 -0.000000
v -0.240416 0.000000 0.240416
v -0.219203 0.820000 0.219203
f 49//17 50//17 51//17
usemtl trash_body
vn -0.923352 0.033781 0.382465
v -0.340000 0.000000 -0.000000
v -0.219203 0.820000 0.219203
v -0.310000 0.820000 -0.000000
f 52//18 53//18 54//18
usemtl trash_body
vn -0.000000 -1.000000 -0.000000
v 0.000000 0.000000 0.000000
v -0.240416 0.000000 0.240416
v -0.340000 0.000000 -0.000000
f 55//19 56//19 57//19
usemtl trash_body
vn 0.000000 1.000000 -0.000000
v 0.000000 0.820000 0.000000
v -0.310000 0.820000 -0.000000
v -0.219203 0.820000 0.219203
f 58//20 59//20 60//20
usemtl trash_body
vn -0.382465 0.033781 0.923352
v -0.240416 0.000000 0.240416
v -0.000000 0.000000 0.340000
v -0.000000 0.820000 0.310000
f 61//21 62//21 63//21
usemtl trash_body
vn -0.382465 0.033781 0.923352
v -0.240416 0.000000 0.240416
v -0.000000 0.820000 0.310000
v -0.219203 0.820000 0.219203
f 64//22 65//22 66//22
usemtl trash_body
vn 0.000000 -1.000000 -0.000000
v 0.000000 0.000000 0.000000
v -0.000000 0.000000 0.340000
v -0.240416 0.000000 0.240416
f 67//23 68//23 69//23
usemtl trash_body
vn 0.000000 1.000000 -0.000000
v 0.000000 0.820000 0.000000
v -0.219203 0.820000 0.219203
v -0.000000 0.820000 0.310000
f 70//24 71//24 72//24
usemtl trash_body
vn 0.382465 0.033781 0.923352
v -0.000000 0.000000 0.340000
v 0.240416 0.000000 0.240416
v 0.219203 0.820000 0.219203
f 73//25 74//25 75//25
usemtl trash_body
vn 0.382465 0.033781 0.923352
v -0.000000 0.000000 0.340000
v 0.219203 0.820000 0.219203
v -0.000000 0.820000 0.310000
f 76//26 77//26 78//26
usemtl trash_body
vn 0.000000 -1.000000 0.000000
v 0.000000 0.000000 0.000000
v 0.240416 0.000000 0.240416
v -0.000000 0.000000 0.340000
f 79//27 80//27 81//27
usemtl trash_body
vn 0.000000 1.000000 -0.000000
v 0.000000 0.820000 0.000000
v -0.000000 0.820000 0.310000
v 0.219203 0.820000 0.219203
f 82//28 83//28 84//28
usemtl trash_body
vn 0.923352 0.033781 0.382465
v 0.240416 0.000000 0.240416
v 0.340000 0.000000 -0.000000
v 0.310000 0.820000 -0.000000
f 85//29 86//29 87//29
usemtl trash_body
vn 0.923352 0.033781 0.382465
v 0.240416 0.000000 0.240416
v 0.310000 0.820000 -0.000000
v 0.219203 0.820000 0.219203
f 88//30 89//30 90//30
usemtl trash_body
vn 0.000000 -1.000000 -0.000000
v 0.000000 0.000000 0.000000
v 0.340000 0.000000 -0.000000
v 0.240416 0.000000 0.240416
f 91//31 92//31 93//31
usemtl trash_body
vn -0.000000 1.000000 -0.000000
v 0.000000 0.820000 0.000000
v 0.219203 0.820000 0.219203
v 0.310000 0.820000 -0.000000
f 94//32 95//32 96//32
usemtl trash_lid
vn 0.817013 0.466865 -0.338418
v 0.380000 0.820000 -0.000000
v 0.268701 0.820000 -0.268701
v 0.212132 0.960000 -0.212132
f 97//33 98//33 99//33
usemtl trash_lid
vn 0.817013 0.466865 -0.338418
v 0.380000 0.820000 -0.000000
v 0.212132 0.960000 -0.212132
v 0.300000 0.960000 -0.000000
f 100//34 101//34 102//34
usemtl trash_lid
vn 0.000000 -1.000000 -0.000000
v 0.000000 0.820000 0.000000
v 0.268701 0.820000 -0.268701
v 0.380000 0.820000 -0.000000
f 103//35 104//35 105//35
usemtl trash_lid
vn 0.000000 1.000000 -0.000000
v 0.000000 0.960000 0.000000
v 0.300000 0.960000 -0.000000
v 0.212132 0.960000 -0.212132
f 106//36 107//36 108//36
usemtl trash_lid
vn 0.338418 0.466865 -0.817013
v 0.268701 0.820000 -0.268701
v 0.000000 0.820000 -0.380000
v 0.000000 0.960000 -0.300000
f 109//37 110//37 111//37
usemtl trash_lid
vn 0.338418 0.466865 -0.817013
v 0.268701 0.820000 -0.268701
v 0.000000 0.960000 -0.300000
v 0.212132 0.960000 -0.212132
f 112//38 113//38 114//38
usemtl trash_lid
vn 0.000000 -1.000000 -0.000000
v 0.000000 0.820000 0.000000
v 0.000000 0.820000 -0.380000
v 0.268701 0.820000 -0.268701
f 115//39 116//39 117//39
usemtl trash_lid
vn 0.000000 1.000000 -0.000000
v 0.000000 0.960000 0.000000
v 0.212132 0.960000 -0.212132
v 0.000000 0.960000 -0.300000
f 118//40 119//40 120//40
usemtl trash_lid
vn -0.338418 0.466865 -0.817013
v 0.000000 0.820000 -0.380000
v -0.268701 0.820000 -0.268701
v -0.212132 0.960000 -0.212132
f 121//41 122//41 123//41
usemtl trash_lid
vn -0.338418 0.466865 -0.817013
v 0.000000 0.820000 -0.380000
v -0.212132 0.960000 -0.212132
v 0.000000 0.960000 -0.300000
f 124//42 125//42 126//42
usemtl trash_lid
vn 0.000000 -1.000000 -0.000000
v 0.000000 0.820000 0.000000
v -0.268701 0.820000 -0.268701
v 0.000000 0.820000 -0.380000
f 127//43 128//43 129//43
usemtl trash_lid
vn 0.000000 1.000000 0.000000
v 0.000000 0.960000 0.000000
v 0.000000 0.960000 -0.300000
v -0.212132 0.960000 -0.212132
f 130//44 131//44 132//44
usemtl trash_lid
vn -0.817013 0.466865 -0.338418
v -0.268701 0.820000 -0.268701
v -0.380000 0.820000 -0.000000
v -0.300000 0.960000 -0.000000
f 133//45 134//45 135//45
usemtl trash_lid
vn -0.817013 0.466865 -0.338418
v -0.268701 0.820000 -0.268701
v -0.300000 0.960000 -0.000000
v -0.212132 0.960000 -0.212132
f 136//46 137//46 138//46
usemtl trash_lid
vn 0.000000 -1.000000 -0.000000
v 0.000000 0.820000 0.000000
v -0.380000 0.820000 -0.000000
v -0.268701 0.820000 -0.268701
f 139//47 140//47 141//47
usemtl trash_lid
vn 0.000000 1.000000 -0.000000
v 0.000000 0.960000 0.000000
v -0.212132 0.960000 -0.212132
v -0.300000 0.960000 -0.000000
f 142//48 143//48 144//48
usemtl trash_lid
vn -0.817013 0.466865 0.338418
v -0.380000 0.820000 -0.000000
v -0.268701 0.820000 0.268701
v -0.212132 0.960000 0.212132
f 145//49 146//49 147//49
usemtl trash_lid
vn -0.817013 0.466865 0.338418
v -0.380000 0.820000 -0.000000
v -0.212132 0.960000 0.212132
v -0.300000 0.960000 -0.000000
f 148//50 149//50 150//50
usemtl trash_lid
vn -0.000000 -1.000000 -0.000000
v 0.000000 0.820000 0.000000
v -0.268701 0.820000 0.268701
v -0.380000 0.820000 -0.000000
f 151//51 152//51 153//51
usemtl trash_lid
vn 0.000000 1.000000 -0.000000
v 0.000000 0.960000 0.000000
v -0.300000 0.960000 -0.000000
v -0.212132 0.960000 0.212132
f 154//52 155//52 156//52
usemtl trash_lid
vn -0.338418 0.466865 0.817013
v -0.268701 0.820000 0.268701
v -0.000000 0.820000 0.380000
v -0.000000 0.960000 0.300000
f 157//53 158//53 159//53
usemtl trash_lid
vn -0.338418 0.466865 0.817013
v -0.268701 0.820000 0.268701
v -0.000000 0.960000 0.300000
v -0.212132 0.960000 0.212132
f 160//54 161//54 162//54
usemtl trash_lid
vn 0.000000 -1.000000 -0.000000
v 0.000000 0.820000 0.000000
v -0.000000 0.820000 0.380000
v -0.268701 0.820000 0.268701
f 163//55 164//55 165//55
usemtl trash_lid
vn 0.000000 1.000000 -0.000000
v 0.000000 0.960000 0.000000
v -0.212132 0.960000 0.212132
v -0.000000 0.960000 0.300000
f 166//56 167//56 168//56
usemtl trash_lid
vn 0.338418 0.466865 0.817013
v -0.000000 0.820000 0.380000
v 0.268701 0.820000 0.268701
v 0.212132 0.960000 0.212132
f 169//57 170//57 171//57
usemtl trash_lid
vn 0.338418 0.466865 0.817013
v -0.000000 0.820000 0.380000
v 0.212132 0.960000 0.212132
v -0.000000 0.960000 0.300000
f 172//58 173//58 174//58
usemtl trash_lid
vn 0.000000 -1.000000 0.000000
v 0.000000 0.820000 0.000000
v 0.268701 0.820000 0.268701
v -0.000000 0.820000 0.380000
f 175//59 176//59 177//59
usemtl trash_lid
vn 0.000000 1.000000 -0.000000
v 0.000000 0.960000 0.000000
v -0.000000 0.960000 0.300000
v 0.212132 0.960000 0.212132
f 178//60 179//60 180//60
usemtl trash_lid
vn 0.817013 0.466865 0.338418
v 0.268701 0.820000 0.268701
v 0.380000 0.820000 -0.000000
v 0.300000 0.960000 -0.000000
f 181//61 182//61 183//61
usemtl trash_lid
vn 0.817013 0.466865 0.338418
v 0.268701 0.820000 0.268701
v 0.300000 0.960000 -0.000000
v 0.212132 0.960000 0.212132
f 184//62 185//62 186//62
usemtl trash_lid
vn 0.000000 -1.000000 -0.000000
v 0.000000 0.820000 0.000000
v 0.380000 0.820000 -0.000000
v 0.268701 0.820000 0.268701
f 187//63 188//63 189//63
usemtl trash_lid
vn -0.000000 1.000000 -0.000000
v 0.000000 0.960000 0.000000
v 0.212132 0.960000 0.212132
v 0.300000 0.960000 -0.000000
f 190//64 191//64 192//64
usemtl trash_lid
vn 0.000000 0.000000 1.000000
v -0.090000 0.960000 0.050000
v 0.090000 0.960000 0.050000
v 0.090000 1.040000 0.050000
f 193//65 194//65 195//65
usemtl trash_lid
vn 0.000000 0.000000 1.000000
v -0.090000 0.960000 0.050000
v 0.090000 1.040000 0.050000
v -0.090000 1.040000 0.050000
f 196//66 197//66 198//66
usemtl trash_lid
vn 1.000000 0.000000 -0.000000
v 0.090000 0.960000 0.050000
v 0.090000 0.960000 -0.050000
v 0.090000 1.040000 -0.050000
f 199//67 200//67 201//67
usemtl trash_lid
vn 1.000000 0.000000 -0.000000
v 0.090000 0.960000 0.050000
v 0.090000 1.040000 -0.050000
v 0.090000 1.040000 0.050000
f 202//68 203//68 204//68
usemtl trash_lid
vn 0.000000 0.000000 -1.000000
v 0.090000 0.960000 -0.050000
v -0.090000 0.960000 -0.050000
v -0.090000 1.040000 -0.050000
f 205//69 206//69 207//69
usemtl trash_lid
vn 0.000000 -0.000000 -1.000000
v 0.090000 0.960000 -0.050000
v -0.090000 1.040000 -0.050000
v 0.090000 1.040000 -0.050000
f 208//70 209//70 210//70
usemtl trash_lid
vn -1.000000 0.000000 -0.000000
v -0.090000 0.960000 -0.050000
v -0.090000 0.960000 0.050000
v -0.090000 1.040000 0.050000
f 211//71 212//71 213//71
usemtl trash_lid
vn -1.000000 0.000000 -0.000000
v -0.090000 0.960000 -0.050000
v -0.090000 1.040000 0.050000
v -0.090000 1.040000 -0.050000
f 214//72 215//72 216//72
usemtl trash_lid
vn 0.000000 -1.000000 -0.000000
v -0.090000 0.960000 0.050000
v -0.090000 0.960000 -0.050000
v 0.090000 0.960000 -0.050000
f 217//73 218//73 219//73
usemtl trash_lid
vn 0.000000 -1.000000 -0.000000
v -0.090000 0.960000 0.050000
v 0.090000 0.960000 -0.050000
v 0.090000 0.960000 0.050000
f 220//74 221//74 222//74
usemtl trash_lid
vn 0.000000 1.000000 -0.000000
v -0.090000 1.040000 0.050000
v 0.090000 1.040000 0.050000
v 0.090000 1.040000 -0.050000
f 223//75 224//75 225//75
usemtl trash_lid
vn 0.000000 1.000000 -0.000000
v -0.090000 1.040000 0.050000
v 0.090000 1.040000 -0.050000
v -0.090000 1.040000 -0.050000
f 226//76 227//76 228//76
