mtllib tree.mtl
o unit_tree
usemtl trunk
vn 0.000000 0.000000 1.000000
v -0.070000 0.000000 0.070000
v 0.070000 0.000000 0.070000
v 0.070000 0.480000 0.070000
f 1//1 2//1 3//1
usemtl trunk
vn 0.000000 0.000000 1.000000
v -0.070000 0.000000 0.070000
v 0.070000 0.480000 0.070000
v -0.070000 0.480000 0.070000
f 4//2 5//2 6//2
usemtl trunk
vn 1.000000 0.000000 -0.000000
v 0.070000 0.000000 0.070000
v 0.070000 0.000000 -0.070000
v 0.070000 0.480000 -0.070000
f 7//3 8//3 9//3
usemtl trunk
vn 1.000000 0.000000 -0.000000
v 0.070000 0.000000 0.070000
v 0.070000 0.480000 -0.070000
v 0.070000 0.480000 0.070000
f 10//4 11//4 12//4
usemtl trunk
vn 0.000000 0.000000 -1.000000
v 0.070000 0.000000 -0.070000
v -0.070000 0.000000 -0.070000
v -0.070000 0.480000 -0.070000
f 13//5 14//5 15//5
usemtl trunk
vn 0.000000 -0.000000 -1.000000
v 0.070000 0.000000 -0.070000
v -0.070000 0.480000 -0.070000
v 0.070000 0.480000 -0.070000
f 16//6 17//6 18//6
usemtl trunk
vn -1.000000 0.000000 -0.000000
v -0.070000 0.000000 -0.070000
v -0.070000 0.000000 0.070000
v -0.070000 0.480000 0.070000
f 19//7 20//7 21//7
usemtl trunk
vn -1.000000 0.000000 -0.000000
v -0.070000 0.000000 -0.070000
v -0.070000 0.480000 0.070000
v -0.070000 0.480000 -0.070000
f 22//8 23//8 24//8
usemtl trunk
vn 0.000000 -1.000000 -0.000000
v -0.070000 0.000000 0.070000
v -0.070000 0.000000 -0.070000
v 0.070000 0.000000 -0.070000
f 25//9 26//9 27//9
usemtl trunk
vn 0.000000 -1.000000 -0.000000
v -0.070000 0.000000 0.070000
v 0.070000 0.000000 -0.070000
v 0.070000 0.000000 0.070000
f 28//10 29//10 30//10
usemtl trunk
vn 0.000000 1.000000 -0.000000
v -0.070000 0.480000 0.070000
v 0.070000 0.480000 0.070000
v 0.070000 0.480000 -0.070000
f 31//11 32//11 33//11
usemtl trunk
vn 0.000000 1.000000 -0.000000
v -0.070000 0.480000 0.070000
v 0.070000 0.480000 -0.070000
v -0.070000 0.480000 -0.070000
f 34//12 35//12 36//12
usemtl leaves
vn 0.646416 0.714460 -0.267754
v 0.000000 1.000000 0.000000
v 0.420000 0.620000 -0.000000
v 0.296985 0.620000 -0.296985
f 37//13 38//13 39//13
usemtl leaves
vn 0.540614 -0.810921 -0.223930
v 0.000000 0.340000 0.000000
v 0.296985 0.620000 -0.296985
v 0.420000 0.620000 -0.000000
f 40//14 41//14 42//14
usemtl leaves
vn 0.267754 0.714460 -0.646416
v 0.000000 1.000000 0.000000
v 0.296985 0.620000 -0.296985
v 0.000000 0.620000 -0.420000
f 43//15 44//15 45//15
usemtl leaves
vn 0.223930 -0.810921 -0.540614
v 0.000000 0.340000 0.000000
v 0.000000 0.620000 -0.420000
v 0.296985 0.620000 -0.296985
f 46//16 47//16 48//16
usemtl leaves
vn -0.267754 0.714460 -0.646416
v 0.000000 1.000000 0.000000
v 0.000000 0.620000 -0.420000
v -0.296985 0.620000 -0.296985
f 49//17 50//17 51//17
usemtl leaves
vn -0.223930 -0.810921 -0.540614
v 0.000000 0.340000 0.000000
v -0.296985 0.620000 -0.296985
v 0.000000 0.620000 -0.420000
f 52//18 53//18 54//18
usemtl leaves
vn -0.646416 0.714460 -0.267754
v 0.000000 1.000000 0.000000
v -0.296985 0.620000 -0.296985
v -0.420000 0.620000 -0.000000
f 55//19 56//19 57//19
usemtl leaves
vn -0.540614 -0.810921 -0.223930
v 0.000000 0.340000 0.000000
v -0.420000 0.620000 -0.000000
v -0.296985 0.620000 -0.296985
f 58//20 59//20 60//20
usemtl leaves
vn -0.646416 0.714460 0.267754
v 0.000000 1.000000 0.000000
v -0.420000 0.620000 -0.000000
v -0.296985 0.620000 0.296985
f 61//21 62//21 63//21
usemtl leaves
vn -0.540614 -0.810921 0.223930
v 0.000000 0.340000 0.000000
v -0.296985 0.620000 0.296985
v -0.420000 0.620000 -0.000000
f 64//22 65//22 66//22
usemtl leaves
vn -0.267754 0.714460 0.646416
v 0.000000 1.000000 0.000000
v -0.296985 0.620000 0.296985
v -0.000000 0.620000 0.420000
f 67//23 68//23 69//23
usemtl leaves
vn -0.223930 -0.810921 0.540614
v 0.000000 0.340000 0.000000
v -0.000000 0.620000 0.420000
v -0.296985 0.620000 0.296985
f 70//24 71//24 72//24
usemtl leaves
vn 0.267754 0.714460 0.646416
v 0.000000 1.000000 0.000000
v -0.000000 0.620000 0.420000
v 0.296985 0.620000 0.296985
f 73//25 74//25 75//25
usemtl leaves
vn 0.223930 -0.810921 0.540614
v 0.000000 0.340000 0.000000
v 0.296985 0.620000 0.296985
v -0.000000 0.620000 0.420000
f 76//26 77//26 78//26
usemtl leaves
vn 0.646416 0.714460 0.267754
v 0.000000 1.000000 0.000000
v 0.296985 0.620000 0.296985
v 0.420000 0.620000 -0.000000
f 79//27 80//27 81//27
usemtl leaves
vn 0.540614 -0.810921 0.223930
v 0.000000 0.340000 0.000000
v 0.420000 0.620000 -0.000000
v 0.296985 0.620000 0.296985
f 82//28 83//28 84//28
