mtllib window.mtl
o recessed_window
usemtl window_glass
vn 0.000000 0.000000 1.000000
v -0.400000 0.140000 0.045000
v 0.400000 0.140000 0.045000
v 0.400000 1.060000 0.045000
f 1//1 2//1 3//1
usemtl window_glass
vn 0.000000 0.000000 1.000000
v -0.400000 0.140000 0.045000
v 0.400000 1.060000 0.045000
v -0.400000 1.060000 0.045000
f 4//2 5//2 6//2
usemtl window_frame
vn 0.000000 0.000000 1.000000
v -0.500000 0.040000 0.130000
v -0.400000 0.040000 0.130000
v -0.400000 1.160000 0.130000
f 7//3 8//3 9//3
usemtl window_frame
vn 0.000000 0.000000 1.000000
v -0.500000 0.040000 0.130000
v -0.400000 1.160000 0.130000
v -0.500000 1.160000 0.130000
f 10//4 11//4 12//4
usemtl window_frame
vn 0.000000 0.000000 1.000000
v 0.400000 0.040000 0.130000
v 0.500000 0.040000 0.130000
v 0.500000 1.160000 0.130000
f 13//5 14//5 15//5
usemtl window_frame
vn 0.000000 0.000000 1.000000
v 0.400000 0.040000 0.130000
v 0.500000 1.160000 0.130000
v 0.400000 1.160000 0.130000
f 16//6 17//6 18//6
usemtl window_frame
vn 0.000000 0.000000 1.000000
v -0.400000 0.040000 0.130000
v 0.400000 0.040000 0.130000
v 0.400000 0.140000 0.130000
f 19//7 20//7 21//7
usemtl window_frame
vn 0.000000 0.000000 1.000000
v -0.400000 0.040000 0.130000
v 0.400000 0.140000 0.130000
v -0.400000 0.140000 0.130000
f 22//8 23//8 24//8
usemtl window_frame
vn 0.000000 0.000000 1.000000
v -0.400000 1.060000 0.130000
v 0.400000 1.060000 0.130000
v 0.400000 1.160000 0.130000
f 25//9 26//9 27//9
usemtl window_frame
vn 0.000000 0.000000 1.000000
v -0.400000 1.060000 0.130000
v 0.400000 1.160000 0.130000
v -0.400000 1.160000 0.130000
f 28//10 29//10 30//10
usemtl window_frame
vn 1.000000 0.000000 -0.000000
v -0.400000 0.140000 0.130000
v -0.400000 0.140000 0.045000
v -0.400000 1.060000 0.045000
f 31//11 32//11 33//11
usemtl window_frame
vn 1.000000 0.000000 -0.000000
v -0.400000 0.140000 0.130000
v -0.400000 1.060000 0.045000
v -0.400000 1.060000 0.130000
f 34//12 35//12 36//12
usemtl window_frame
vn -1.000000 0.000000 -0.000000
v 0.400000 0.140000 0.045000
v 0.400000 0.140000 0.130000
v 0.400000 1.060000 0.130000
f 37//13 38//13 39//13
usemtl window_frame
vn -1.000000 0.000000 -0.000000
v 0.400000 0.140000 0.045000
v 0.400000 1.060000 0.130000
v 0.400000 1.060000 0.045000
f 40//14 41//14 42//14
usemtl window_frame
vn 0.000000 1.000000 -0.000000
v -0.400000 0.140000 0.045000
v -0.400000 0.140000 0.130000
v 0.400000 0.140000 0.130000
f 43//15 44//15 45//15
usemtl window_frame
vn -0.000000 1.000000 -0.000000
v -0.400000 0.140000 0.045000
v 0.400000 0.140000 0.130000
v 0.400000 0.140000 0.045000
f 46//16 47//16 48//16
usemtl window_frame
vn 0.000000 -1.000000 -0.000000
v -0.400000 1.060000 0.130000
v -0.400000 1.060000 0.045000
v 0.400000 1.060000 0.045000
f 49//17 50//17 51//17
usemtl window_frame
vn 0.000000 -1.000000 -0.000000
v -0.400000 1.060000 0.130000
v 0.400000 1.060000 0.045000
v 0.400000 1.060000 0.130000
f 52//18 53//18 54//18
